<svg width="126" height="28" viewBox="0 0 126 28" fill="none" xmlns="http://www.w3.org/2000/svg">
<path d="M0 14H96" stroke="white" stroke-dasharray="2 2"/>
<path d="M126 14L121 11.1132V16.8868L126 14ZM96 14V14.5H96.9375V14V13.5H96V14ZM98.8125 14V14.5H100.688V14V13.5H98.8125V14ZM102.562 14V14.5H104.438V14V13.5H102.562V14ZM106.312 14V14.5H108.188V14V13.5H106.312V14ZM110.063 14V14.5H111.938V14V13.5H110.063V14ZM113.812 14V14.5H115.688V14V13.5H113.812V14ZM117.562 14V14.5H119.438V14V13.5H117.562V14ZM121.312 14V14.5H123.188V14V13.5H121.312V14Z" fill="white"/>
</svg>
