<svg width="51" height="14" viewBox="0 0 51 14" fill="none" xmlns="http://www.w3.org/2000/svg">
<path d="M13 4.1576V4.20685C13 4.78709 13 5.07788 12.8654 5.31537C12.7309 5.55286 12.4859 5.69387 11.9971 5.97657L11.4816 6.27343C11.8365 5.0266 11.9554 3.68667 11.999 2.54104L12.0055 2.39193L12.0068 2.35685C12.4299 2.50933 12.6678 2.62335 12.816 2.83656C13 3.10171 13 3.4539 13 4.1576ZM0 4.1576V4.20685C0 4.78709 9.68575e-09 5.07788 0.13455 5.31537C0.2691 5.55286 0.51415 5.69387 1.00295 5.97657L1.51905 6.27343C1.1635 5.0266 1.04455 3.68667 1.001 2.54104L0.9945 2.39193L0.99385 2.35685C0.57005 2.50933 0.33215 2.62335 0.18395 2.83656C0 3.10171 0 3.45457 0 4.1576Z" fill="#F04A25"/>
<path fill-rule="evenodd" clip-rule="evenodd" d="M9.34505 0.234271C8.40461 0.0743662 7.45297 -0.0039438 6.5 0.000152747C5.34105 0.000152747 4.38555 0.106079 3.65495 0.234271C2.9146 0.363811 2.54475 0.428582 2.23535 0.823951C1.9266 1.21932 1.94285 1.6464 1.97535 2.50056C2.0878 5.43412 2.6975 9.09904 6.0125 9.42289V11.8073H5.083C4.93279 11.8073 4.78725 11.8614 4.67112 11.9603C4.55499 12.0592 4.47544 12.1968 4.446 12.3497L4.3225 12.988H2.6C2.47071 12.988 2.34671 13.0413 2.25529 13.1362C2.16386 13.2311 2.1125 13.3598 2.1125 13.494C2.1125 13.6282 2.16386 13.7569 2.25529 13.8518C2.34671 13.9467 2.47071 14 2.6 14H10.4C10.5293 14 10.6533 13.9467 10.7447 13.8518C10.8361 13.7569 10.8875 13.6282 10.8875 13.494C10.8875 13.3598 10.8361 13.2311 10.7447 13.1362C10.6533 13.0413 10.5293 12.988 10.4 12.988H8.6775L8.554 12.3497C8.52456 12.1968 8.44501 12.0592 8.32888 11.9603C8.21275 11.8614 8.06721 11.8073 7.917 11.8073H6.9875V9.42289C10.3025 9.09904 10.9128 5.43479 11.0246 2.50056C11.0571 1.6464 11.074 1.21865 10.7647 0.823951C10.4552 0.428582 10.0854 0.363811 9.34505 0.234271Z" fill="#F04A25"/>
<path d="M32 4.1576V4.20685C32 4.78709 32 5.07788 31.8654 5.31537C31.7309 5.55286 31.4859 5.69387 30.9971 5.97657L30.4816 6.27343C30.8365 5.0266 30.9554 3.68667 30.999 2.54104L31.0055 2.39193L31.0068 2.35685C31.4299 2.50933 31.6678 2.62335 31.816 2.83656C32 3.10171 32 3.4539 32 4.1576ZM19 4.1576V4.20685C19 4.78709 19 5.07788 19.1346 5.31537C19.2691 5.55286 19.5141 5.69387 20.0029 5.97657L20.519 6.27343C20.1635 5.0266 20.0445 3.68667 20.001 2.54104L19.9945 2.39193L19.9938 2.35685C19.5701 2.50933 19.3321 2.62335 19.1839 2.83656C19 3.10171 19 3.45457 19 4.1576Z" fill="#F04A25"/>
<path fill-rule="evenodd" clip-rule="evenodd" d="M28.345 0.234271C27.4046 0.0743662 26.453 -0.0039438 25.5 0.000152747C24.341 0.000152747 23.3856 0.106079 22.6549 0.234271C21.9146 0.363811 21.5447 0.428582 21.2353 0.823951C20.9266 1.21932 20.9428 1.6464 20.9753 2.50056C21.0878 5.43412 21.6975 9.09904 25.0125 9.42289V11.8073H24.083C23.9328 11.8073 23.7872 11.8614 23.6711 11.9603C23.555 12.0592 23.4754 12.1968 23.446 12.3497L23.3225 12.988H21.6C21.4707 12.988 21.3467 13.0413 21.2553 13.1362C21.1639 13.2311 21.1125 13.3598 21.1125 13.494C21.1125 13.6282 21.1639 13.7569 21.2553 13.8518C21.3467 13.9467 21.4707 14 21.6 14H29.4C29.5293 14 29.6533 13.9467 29.7447 13.8518C29.8361 13.7569 29.8875 13.6282 29.8875 13.494C29.8875 13.3598 29.8361 13.2311 29.7447 13.1362C29.6533 13.0413 29.5293 12.988 29.4 12.988H27.6775L27.554 12.3497C27.5246 12.1968 27.445 12.0592 27.3289 11.9603C27.2128 11.8614 27.0672 11.8073 26.917 11.8073H25.9875V9.42289C29.3025 9.09904 29.9128 5.43479 30.0246 2.50056C30.0571 1.6464 30.074 1.21865 29.7647 0.823951C29.4552 0.428582 29.0854 0.363811 28.345 0.234271Z" fill="#F04A25"/>
<path d="M51 4.1576V4.20685C51 4.78709 51 5.07788 50.8654 5.31537C50.7309 5.55286 50.4859 5.69387 49.9971 5.97657L49.4816 6.27343C49.8365 5.0266 49.9554 3.68667 49.999 2.54104L50.0055 2.39193L50.0068 2.35685C50.4299 2.50933 50.6678 2.62335 50.816 2.83656C51 3.10171 51 3.4539 51 4.1576ZM38 4.1576V4.20685C38 4.78709 38 5.07788 38.1346 5.31537C38.2691 5.55286 38.5141 5.69387 39.0029 5.97657L39.519 6.27343C39.1635 5.0266 39.0445 3.68667 39.001 2.54104L38.9945 2.39193L38.9938 2.35685C38.5701 2.50933 38.3321 2.62335 38.1839 2.83656C38 3.10171 38 3.45457 38 4.1576Z" fill="#F04A25"/>
<path fill-rule="evenodd" clip-rule="evenodd" d="M47.345 0.234271C46.4046 0.0743662 45.453 -0.0039438 44.5 0.000152747C43.341 0.000152747 42.3856 0.106079 41.6549 0.234271C40.9146 0.363811 40.5447 0.428582 40.2353 0.823951C39.9266 1.21932 39.9428 1.6464 39.9753 2.50056C40.0878 5.43412 40.6975 9.09904 44.0125 9.42289V11.8073H43.083C42.9328 11.8073 42.7872 11.8614 42.6711 11.9603C42.555 12.0592 42.4754 12.1968 42.446 12.3497L42.3225 12.988H40.6C40.4707 12.988 40.3467 13.0413 40.2553 13.1362C40.1639 13.2311 40.1125 13.3598 40.1125 13.494C40.1125 13.6282 40.1639 13.7569 40.2553 13.8518C40.3467 13.9467 40.4707 14 40.6 14H48.4C48.5293 14 48.6533 13.9467 48.7447 13.8518C48.8361 13.7569 48.8875 13.6282 48.8875 13.494C48.8875 13.3598 48.8361 13.2311 48.7447 13.1362C48.6533 13.0413 48.5293 12.988 48.4 12.988H46.6775L46.554 12.3497C46.5246 12.1968 46.445 12.0592 46.3289 11.9603C46.2128 11.8614 46.0672 11.8073 45.917 11.8073H44.9875V9.42289C48.3025 9.09904 48.9128 5.43479 49.0246 2.50056C49.0571 1.6464 49.074 1.21865 48.7647 0.823951C48.4552 0.428582 48.0854 0.363811 47.345 0.234271Z" fill="#F04A25"/>
</svg>
