<svg width="31" height="13" viewBox="0 0 31 13" fill="none" xmlns="http://www.w3.org/2000/svg">
<path d="M2.82038 7.28124L7.75 12.509L6.12936 13L0 6.5L6.12936 0L7.75 0.491042L2.82038 5.71876L2.06647 6.5L2.82038 7.28124Z" fill="#FF6A3A"/>
<path d="M14.3475 9.07096V8.98555C14.3475 8.19404 14.4292 7.5876 14.5925 7.16623C14.7619 6.73916 15.0009 6.4032 15.3094 6.15834C15.618 5.9078 15.987 5.6601 16.4166 5.41524C16.8098 5.19886 17.1365 4.91415 17.3967 4.5611C17.6629 4.20236 17.796 3.7753 17.796 3.27989C17.796 2.8756 17.6961 2.52541 17.4965 2.2293C17.2968 1.9332 17.0246 1.70543 16.6797 1.54599C16.3409 1.38086 15.9628 1.29829 15.5454 1.29829C15.1884 1.29829 14.8436 1.36947 14.5108 1.51183C14.1781 1.64849 13.8968 1.86772 13.6669 2.16951C13.443 2.46562 13.3129 2.85852 13.2766 3.34823H11.625C11.6552 2.64783 11.8458 2.04709 12.1967 1.54599C12.5537 1.0449 13.0225 0.663382 13.6033 0.401445C14.1902 0.133815 14.8375 0 15.5454 0C16.3258 0 17.0004 0.145204 17.5691 0.435611C18.1438 0.726018 18.5885 1.12462 18.9031 1.63141C19.2177 2.1325 19.375 2.70477 19.375 3.34823C19.375 4.03723 19.2116 4.62659 18.885 5.11629C18.5643 5.606 18.1166 6.01883 17.5419 6.3548C17.1547 6.57687 16.8401 6.79325 16.5981 7.00394C16.3621 7.20894 16.1897 7.46233 16.0808 7.76413C15.9779 8.06592 15.9265 8.47306 15.9265 8.98555V9.07096H14.3475ZM15.1552 13C14.8285 13 14.5471 12.8918 14.3112 12.6754C14.0813 12.4534 13.9663 12.1886 13.9663 11.8811C13.9663 11.5736 14.0813 11.3117 14.3112 11.0953C14.5471 10.8732 14.8285 10.7622 15.1552 10.7622C15.4818 10.7622 15.7601 10.8732 15.99 11.0953C16.226 11.3117 16.344 11.5736 16.344 11.8811C16.344 12.1886 16.226 12.4534 15.99 12.6754C15.7601 12.8918 15.4818 13 15.1552 13Z" fill="#FF6A3A"/>
<path d="M28.1796 5.71876L23.25 0.491042L24.8706 0L31 6.5L24.8706 13L23.25 12.509L28.1796 7.28124L28.9335 6.5L28.1796 5.71876Z" fill="#FF6A3A"/>
</svg>
