<svg width="186" height="40" viewBox="0 0 186 40" fill="none" xmlns="http://www.w3.org/2000/svg">
<path d="M45.6176 40L29.2641 20L45.6176 0H37.5843L21.2308 20L37.5843 40H45.6176Z" fill="#FF6A3A"/>
<path d="M29.5511 40L13.1976 20L29.5511 0H21.5178L6.31187 18.5965V0H0V40H6.31187V21.4035L21.5178 40H29.5511Z" fill="white"/>
<path d="M54.9451 29.5798V11.2303H60.0434V18.3535H61.4953L66.4947 11.2303H72.5005L65.9832 20.3558L72.5665 29.5798H66.4947L61.9408 23.0804H60.0434V29.5798H54.9451Z" fill="white"/>
<path d="M78.8692 29.9245C77.7033 29.9245 76.6528 29.7221 75.7178 29.3172C74.7939 28.9014 74.0679 28.2887 73.5399 27.479C73.0119 26.6693 72.7479 25.6626 72.7479 24.459C72.7479 23.4305 72.9349 22.577 73.3089 21.8986C73.6829 21.2093 74.1944 20.6513 74.8434 20.2245C75.4923 19.7978 76.2293 19.475 77.0543 19.2562C77.8793 19.0373 78.7537 18.8841 79.6777 18.7966C80.7447 18.6981 81.6026 18.5997 82.2516 18.5012C82.9006 18.4027 83.3736 18.255 83.6706 18.058C83.9786 17.8501 84.1325 17.5547 84.1325 17.1717V17.0897C84.1325 16.3347 83.8906 15.7493 83.4066 15.3335C82.9336 14.9177 82.2626 14.7098 81.3936 14.7098C80.4807 14.7098 79.7492 14.9122 79.1992 15.3171C78.6602 15.711 78.3027 16.2143 78.1268 16.8271L73.3914 16.4496C73.6334 15.3335 74.1064 14.3706 74.8104 13.5609C75.5144 12.7403 76.4218 12.1111 77.5328 11.6735C78.6547 11.2248 79.9527 11.0005 81.4266 11.0005C82.4496 11.0005 83.4286 11.1209 84.3635 11.3616C85.2985 11.6023 86.129 11.9744 86.8549 12.4777C87.5919 12.9701 88.1749 13.6102 88.6039 14.398C89.0329 15.1858 89.2474 16.1213 89.2474 17.2046V29.5798H84.38V27.0194H84.248C83.951 27.5994 83.5551 28.1081 83.0601 28.5458C82.5651 28.9726 81.9711 29.3118 81.2781 29.5634C80.5852 29.8041 79.7822 29.9245 78.8692 29.9245ZM80.3377 26.4122C81.0857 26.4122 81.7456 26.2644 82.3176 25.969C82.9006 25.6626 83.3516 25.2578 83.6706 24.7545C84.0006 24.2402 84.1656 23.6657 84.1656 23.0311V21.078C84.0116 21.1765 83.7916 21.2695 83.5056 21.357C83.2306 21.4445 82.9226 21.5211 82.5816 21.5868C82.2406 21.6524 81.8996 21.7126 81.5586 21.7673C81.2177 21.8111 80.9097 21.8549 80.6347 21.8986C80.0297 21.9862 79.5017 22.1284 79.0507 22.3254C78.5997 22.5114 78.2477 22.7685 77.9948 23.0968C77.7528 23.4141 77.6318 23.8135 77.6318 24.2949C77.6318 24.9842 77.8848 25.5095 78.3907 25.8705C78.8967 26.2316 79.5457 26.4122 80.3377 26.4122Z" fill="white"/>
<path d="M92.2338 36.4404V11.2303H97.2496V14.3323H97.4806C97.7116 13.829 98.0416 13.3202 98.4706 12.8059C98.8995 12.2917 99.4605 11.8649 100.153 11.5257C100.846 11.1756 101.704 11.0005 102.727 11.0005C104.08 11.0005 105.318 11.3507 106.44 12.0509C107.573 12.7403 108.48 13.7852 109.162 15.1858C109.844 16.5864 110.185 18.3371 110.185 20.4379C110.185 22.4731 109.855 24.1964 109.195 25.6079C108.535 27.0085 107.639 28.0699 106.506 28.792C105.384 29.5142 104.119 29.8753 102.711 29.8753C101.721 29.8753 100.879 29.7111 100.186 29.3829C99.4935 29.0546 98.927 28.6443 98.487 28.1519C98.0581 27.6486 97.7226 27.1453 97.4806 26.6419H97.3321V36.4404H92.2338ZM101.094 25.8377C101.93 25.8377 102.634 25.6079 103.206 25.1484C103.778 24.6888 104.212 24.0542 104.509 23.2445C104.806 22.4238 104.955 21.4828 104.955 20.4215C104.955 19.3601 104.806 18.4301 104.509 17.6313C104.223 16.8216 103.794 16.187 103.222 15.7274C102.65 15.2679 101.941 15.0381 101.094 15.0381C100.269 15.0381 99.565 15.2624 98.982 15.711C98.41 16.1487 97.9701 16.7724 97.6621 17.5821C97.3651 18.3808 97.2166 19.3273 97.2166 20.4215C97.2166 21.5047 97.3706 22.4512 97.6786 23.2609C97.9866 24.0706 98.4266 24.7052 98.9985 25.1648C99.5815 25.6134 100.28 25.8377 101.094 25.8377Z" fill="white"/>
<path d="M115.613 16.8927H121.141C123.583 16.8818 125.48 17.4562 126.833 18.6161C128.197 19.7759 128.884 21.3242 128.895 23.2609C128.895 24.5192 128.587 25.6243 127.972 26.5763C127.356 27.5173 126.47 28.2559 125.315 28.792C124.16 29.3172 122.769 29.5798 121.141 29.5798H112.429V11.2303H117.296V25.5751H121.141C121.988 25.5751 122.686 25.3617 123.236 24.935C123.786 24.5083 124.067 23.9612 124.078 23.2937C124.067 22.5825 123.786 22.0026 123.236 21.554C122.686 21.1053 121.988 20.8865 121.141 20.8975H115.613V16.8927Z" fill="white"/>
<path d="M139.538 29.9409C137.646 29.9409 136.012 29.5579 134.637 28.792C133.262 28.0261 132.206 26.9374 131.469 25.5259C130.743 24.1034 130.38 22.4238 130.38 20.4871C130.38 18.6051 130.743 16.9529 131.469 15.5305C132.206 14.108 133.24 12.9974 134.571 12.1987C135.913 11.3999 137.486 11.0005 139.29 11.0005C140.511 11.0005 141.65 11.1975 142.706 11.5914C143.761 11.9744 144.685 12.5543 145.477 13.3311C146.269 14.0971 146.885 15.0654 147.325 16.2362C147.765 17.3961 147.985 18.7583 147.985 20.323V21.7017H132.41V18.5668H145.51L143.134 19.3875C143.134 18.4574 142.992 17.6477 142.706 16.9584C142.42 16.269 141.991 15.7384 141.419 15.3663C140.858 14.9834 140.159 14.7919 139.323 14.7919C138.487 14.7919 137.778 14.9834 137.195 15.3663C136.623 15.7493 136.183 16.269 135.875 16.9256C135.567 17.5821 135.413 18.3371 135.413 19.1905V21.4062C135.413 22.402 135.589 23.2554 135.941 23.9667C136.293 24.6669 136.782 25.2086 137.409 25.5915C138.047 25.9635 138.779 26.1496 139.604 26.1496C140.176 26.1496 140.693 26.0675 141.155 25.9034C141.617 25.7392 142.013 25.4985 142.343 25.1812C142.684 24.8639 142.936 24.4809 143.102 24.0323L147.82 24.3441C147.589 25.4712 147.105 26.4559 146.368 27.2985C145.642 28.13 144.702 28.7811 143.547 29.2516C142.392 29.7111 141.056 29.9409 139.538 29.9409Z" fill="white"/>
<path d="M150.18 36.4404V11.2303H155.196V14.3323H155.427C155.658 13.829 155.988 13.3202 156.417 12.8059C156.846 12.2917 157.406 11.8649 158.099 11.5257C158.792 11.1756 159.65 11.0005 160.673 11.0005C162.026 11.0005 163.264 11.3507 164.386 12.0509C165.519 12.7403 166.426 13.7852 167.108 15.1858C167.79 16.5864 168.131 18.3371 168.131 20.4379C168.131 22.4731 167.801 24.1964 167.141 25.6079C166.481 27.0085 165.585 28.0699 164.452 28.792C163.33 29.5142 162.065 29.8753 160.657 29.8753C159.667 29.8753 158.825 29.7111 158.132 29.3829C157.439 29.0546 156.873 28.6443 156.433 28.1519C156.004 27.6486 155.669 27.1453 155.427 26.6419H155.278V36.4404H150.18ZM159.04 25.8377C159.876 25.8377 160.58 25.6079 161.152 25.1484C161.724 24.6888 162.158 24.0542 162.455 23.2445C162.752 22.4238 162.901 21.4828 162.901 20.4215C162.901 19.3601 162.752 18.4301 162.455 17.6313C162.169 16.8216 161.74 16.187 161.168 15.7274C160.596 15.2679 159.887 15.0381 159.04 15.0381C158.215 15.0381 157.511 15.2624 156.928 15.711C156.356 16.1487 155.916 16.7724 155.608 17.5821C155.311 18.3808 155.163 19.3273 155.163 20.4215C155.163 21.5047 155.317 22.4512 155.625 23.2609C155.933 24.0706 156.373 24.7052 156.945 25.1648C157.527 25.6134 158.226 25.8377 159.04 25.8377Z" fill="white"/>
<path d="M175.622 29.9245C174.456 29.9245 173.405 29.7221 172.47 29.3172C171.546 28.9014 170.821 28.2887 170.293 27.479C169.765 26.6693 169.501 25.6626 169.501 24.459C169.501 23.4305 169.688 22.577 170.062 21.8986C170.436 21.2093 170.947 20.6513 171.596 20.2245C172.245 19.7978 172.982 19.475 173.807 19.2562C174.632 19.0373 175.506 18.8841 176.43 18.7966C177.497 18.6981 178.355 18.5997 179.004 18.5012C179.653 18.4027 180.126 18.255 180.423 18.058C180.731 17.8501 180.885 17.5547 180.885 17.1717V17.0897C180.885 16.3347 180.643 15.7493 180.159 15.3335C179.686 14.9177 179.015 14.7098 178.146 14.7098C177.233 14.7098 176.502 14.9122 175.952 15.3171C175.413 15.711 175.055 16.2143 174.879 16.8271L170.144 16.4496C170.386 15.3335 170.859 14.3706 171.563 13.5609C172.267 12.7403 173.174 12.1111 174.285 11.6735C175.407 11.2248 176.705 11.0005 178.179 11.0005C179.202 11.0005 180.181 11.1209 181.116 11.3616C182.051 11.6023 182.882 11.9744 183.608 12.4777C184.345 12.9701 184.928 13.6102 185.357 14.398C185.786 15.1858 186 16.1213 186 17.2046V29.5798H181.133V27.0194H181.001C180.704 27.5994 180.308 28.1081 179.813 28.5458C179.318 28.9726 178.724 29.3118 178.031 29.5634C177.338 29.8041 176.535 29.9245 175.622 29.9245ZM177.09 26.4122C177.838 26.4122 178.498 26.2644 179.07 25.969C179.653 25.6626 180.104 25.2578 180.423 24.7545C180.753 24.2402 180.918 23.6657 180.918 23.0311V21.078C180.764 21.1765 180.544 21.2695 180.258 21.357C179.983 21.4445 179.675 21.5211 179.334 21.5868C178.993 21.6524 178.652 21.7126 178.311 21.7673C177.97 21.8111 177.662 21.8549 177.387 21.8986C176.782 21.9862 176.254 22.1284 175.803 22.3254C175.352 22.5114 175 22.7685 174.747 23.0968C174.505 23.4141 174.384 23.8135 174.384 24.2949C174.384 24.9842 174.637 25.5095 175.143 25.8705C175.649 26.2316 176.298 26.4122 177.09 26.4122Z" fill="white"/>
</svg>
