<svg width="45" height="12" viewBox="0 0 45 12" fill="none" xmlns="http://www.w3.org/2000/svg">
<path d="M10.0792 4.41185C10.3573 4.5651 10.5899 4.79386 10.7521 5.07363C10.9143 5.35339 11 5.67362 11 6.00001C11 6.32639 10.9143 6.64662 10.7521 6.92639C10.5899 7.20615 10.3573 7.43492 10.0792 7.58816L2.66151 11.7682C1.4671 12.442 0 11.566 0 10.1807V1.81993C0 0.433972 1.4671 -0.441402 2.66151 0.231178L10.0792 4.41185Z" fill="#F04A25"/>
<path d="M27.0792 4.41185C27.3573 4.5651 27.5899 4.79386 27.7521 5.07363C27.9143 5.35339 28 5.67362 28 6.00001C28 6.32639 27.9143 6.64662 27.7521 6.92639C27.5899 7.20615 27.3573 7.43492 27.0792 7.58816L19.6615 11.7682C18.4671 12.442 17 11.566 17 10.1807V1.81993C17 0.433972 18.4671 -0.441402 19.6615 0.231178L27.0792 4.41185Z" fill="#F04A25"/>
<path d="M44.0792 4.41185C44.3573 4.5651 44.5899 4.79386 44.7521 5.07363C44.9143 5.35339 45 5.67362 45 6.00001C45 6.32639 44.9143 6.64662 44.7521 6.92639C44.5899 7.20615 44.3573 7.43492 44.0792 7.58816L36.6615 11.7682C35.4671 12.442 34 11.566 34 10.1807V1.81993C34 0.433972 35.4671 -0.441402 36.6615 0.231178L44.0792 4.41185Z" fill="#F04A25"/>
</svg>
