<svg width="12" height="12" viewBox="0 0 12 12" fill="none" xmlns="http://www.w3.org/2000/svg">
<path d="M0.500945 11.5823C0.190026 11.2692 0.180332 10.7712 0.479293 10.4701L10.656 0.219622C10.955 -0.0815036 11.4494 -0.0717395 11.7603 0.241431C12.0712 0.554602 12.0809 1.05259 11.782 1.35371L1.60523 11.6041C1.30627 11.9053 0.811864 11.8955 0.500945 11.5823Z" fill="#C8D3CF"/>
<path d="M0.249748 0.231446C0.566046 -0.0762114 1.06054 -0.077283 1.35424 0.229052L11.3518 10.6568C11.6455 10.9632 11.6272 11.4609 11.3109 11.7686C10.9946 12.0762 10.5001 12.0773 10.2064 11.7709L0.208826 1.34318C-0.084871 1.03684 -0.0665494 0.539103 0.249748 0.231446Z" fill="#C8D3CF"/>
</svg>
