<svg width="44" height="10" viewBox="0 0 44 10" fill="none" xmlns="http://www.w3.org/2000/svg">
<path d="M10.3742 5.36081L5.66238 10L0.950534 5.36081C0.639744 5.06016 0.39494 4.69879 0.231536 4.29946C0.068133 3.90013 -0.0103296 3.4715 0.0010893 3.04055C0.0125082 2.60959 0.113561 2.18566 0.297885 1.79544C0.482209 1.40521 0.745811 1.05716 1.07209 0.773191C1.39837 0.489222 1.78026 0.275489 2.19371 0.145451C2.60717 0.0154141 3.04322 -0.0281105 3.47443 0.0176179C3.90563 0.0633462 4.32264 0.197337 4.6992 0.411153C5.07575 0.624969 5.4037 0.913978 5.66238 1.25998C5.92218 0.91649 6.2505 0.630006 6.6268 0.418459C7.0031 0.206912 7.41926 0.0748571 7.84926 0.0305578C8.27925 -0.0137416 8.71382 0.0306689 9.12576 0.16101C9.53769 0.29135 9.91813 0.504815 10.2433 0.788045C10.5684 1.07127 10.8312 1.41817 11.0153 1.80702C11.1994 2.19588 11.3007 2.61832 11.313 3.0479C11.3253 3.47748 11.2483 3.90497 11.0867 4.30359C10.9252 4.70222 10.6826 5.06341 10.3742 5.36456" fill="#F04A25"/>
<path d="M26.7171 5.36081L22.0052 10L17.2934 5.36081C16.9826 5.06016 16.7378 4.69879 16.5744 4.29946C16.411 3.90013 16.3325 3.4715 16.3439 3.04055C16.3554 2.60959 16.4564 2.18566 16.6407 1.79544C16.8251 1.40521 17.0887 1.05716 17.4149 0.773191C17.7412 0.489222 18.1231 0.275489 18.5366 0.145451C18.95 0.0154141 19.3861 -0.0281105 19.8173 0.0176179C20.2485 0.0633462 20.6655 0.197337 21.0421 0.411153C21.4186 0.624969 21.7466 0.913978 22.0052 1.25998C22.265 0.91649 22.5934 0.630006 22.9697 0.418459C23.346 0.206912 23.7621 0.0748571 24.1921 0.0305578C24.6221 -0.0137416 25.0567 0.0306689 25.4686 0.16101C25.8805 0.29135 26.261 0.504815 26.5861 0.788045C26.9113 1.07127 27.1741 1.41817 27.3582 1.80702C27.5422 2.19588 27.6436 2.61832 27.6559 3.0479C27.6682 3.47748 27.5911 3.90497 27.4296 4.30359C27.2681 4.70222 27.0255 5.06341 26.7171 5.36456" fill="#F04A25"/>
<path d="M43.0599 5.36081L38.3481 10L33.6362 5.36081C33.3255 5.06016 33.0807 4.69879 32.9173 4.29946C32.7538 3.90013 32.6754 3.4715 32.6868 3.04055C32.6982 2.60959 32.7993 2.18566 32.9836 1.79544C33.1679 1.40521 33.4315 1.05716 33.7578 0.773191C34.0841 0.489222 34.466 0.275489 34.8794 0.145451C35.2929 0.0154141 35.7289 -0.0281105 36.1601 0.0176179C36.5914 0.0633462 37.0084 0.197337 37.3849 0.411153C37.7615 0.624969 38.0894 0.913978 38.3481 1.25998C38.6079 0.91649 38.9362 0.630006 39.3125 0.418459C39.6888 0.206912 40.105 0.0748571 40.535 0.0305578C40.965 -0.0137416 41.3995 0.0306689 41.8115 0.16101C42.2234 0.29135 42.6038 0.504815 42.929 0.788045C43.2541 1.07127 43.5169 1.41817 43.701 1.80702C43.8851 2.19588 43.9864 2.61832 43.9987 3.0479C44.011 3.47748 43.934 3.90497 43.7725 4.30359C43.6109 4.70222 43.3684 5.06341 43.0599 5.36456" fill="#F04A25"/>
</svg>
