<svg width="219" height="34" viewBox="0 0 219 34" fill="none" xmlns="http://www.w3.org/2000/svg">
<g clip-path="url(#clip0_4163_921)">
<path d="M12.2642 11.0159H3.90538V25.438H0V7.32324H16.1696V25.438H12.2642V11.0159Z" fill="#FF4A37"/>
<path d="M19.9707 7.32428H23.8761V9.30993C24.6754 8.54354 25.5318 7.95134 26.4454 7.53329C27.3589 7.11526 28.3867 6.90625 29.5286 6.90625C30.8076 6.90625 31.9838 7.1501 33.0572 7.6378C34.1535 8.10228 35.0897 8.76417 35.8662 9.62347C36.6428 10.4595 37.248 11.4582 37.682 12.6193C38.1159 13.7574 38.3328 14.9998 38.3328 16.3468C38.3328 17.7402 38.0931 19.0176 37.6134 20.1788C37.1567 21.3167 36.5286 22.3038 35.7292 23.1399C34.93 23.9527 33.9707 24.5914 32.8517 25.0559C31.7554 25.5203 30.5792 25.7526 29.323 25.7526C28.204 25.7526 27.1991 25.5784 26.3084 25.23C25.4176 24.8816 24.6069 24.3939 23.8761 23.767V32.4062H19.9707V7.32428ZM28.7407 22.0599C29.5172 22.0599 30.2366 21.9322 30.8989 21.6767C31.5841 21.4213 32.1779 21.0497 32.6803 20.562C33.1828 20.0511 33.571 19.4473 33.8451 18.7505C34.142 18.0305 34.2905 17.2177 34.2905 16.312C34.2905 15.476 34.1648 14.7096 33.9136 14.0128C33.6624 13.2928 33.297 12.689 32.8173 12.2013C32.3606 11.6904 31.8124 11.2955 31.173 11.017C30.5335 10.7383 29.8255 10.5989 29.049 10.5989C27.8614 10.5989 26.8108 10.8891 25.8973 11.4698C25.0066 12.0503 24.3329 12.7471 23.8761 13.5599V19.064C24.3329 20.0395 24.9837 20.7826 25.8287 21.2936C26.6738 21.8045 27.6445 22.0599 28.7407 22.0599Z" fill="#FF4A37"/>
<path d="M40.3613 16.3468C40.3613 14.9766 40.5897 13.7225 41.0465 12.5846C41.5033 11.4234 42.1542 10.4247 42.9992 9.58863C43.8443 8.75256 44.8492 8.10228 46.0139 7.6378C47.1787 7.1501 48.469 6.90625 49.885 6.90625C51.2782 6.90625 52.5571 7.1501 53.7219 7.6378C54.9095 8.10228 55.9258 8.75256 56.7708 9.58863C57.6158 10.4247 58.2668 11.4234 58.7235 12.5846C59.2032 13.7225 59.4429 14.9766 59.4429 16.3468C59.4429 17.7171 59.2032 18.9827 58.7235 20.1439C58.2668 21.282 57.6158 22.2689 56.7708 23.105C55.9258 23.9411 54.9095 24.5913 53.7219 25.0559C52.5571 25.5203 51.2782 25.7526 49.885 25.7526C48.4919 25.7526 47.2129 25.5203 46.0481 25.0559C44.8834 24.5913 43.8785 23.9411 43.0334 23.105C42.1884 22.2689 41.5261 21.282 41.0465 20.1439C40.5897 18.9827 40.3613 17.7171 40.3613 16.3468ZM44.4038 16.3468C44.4038 17.1597 44.5294 17.9145 44.7806 18.6112C45.0547 19.3079 45.4315 19.9117 45.9111 20.4226C46.3907 20.9336 46.9617 21.34 47.624 21.642C48.3092 21.9205 49.0628 22.0599 49.885 22.0599C50.7072 22.0599 51.4494 21.9322 52.1117 21.6767C52.7969 21.398 53.3793 21.0149 53.8589 20.5272C54.3385 20.0162 54.7153 19.4124 54.9894 18.7157C55.2634 18.0189 55.4005 17.2293 55.4005 16.3468C55.4005 15.4643 55.2521 14.6747 54.9552 13.9779C54.6811 13.258 54.2929 12.6542 53.7904 12.1665C53.288 11.6555 52.7055 11.2724 52.0432 11.017C51.3809 10.7383 50.6615 10.5989 49.885 10.5989C49.1085 10.5989 48.3777 10.7383 47.6925 11.017C47.0302 11.2724 46.4479 11.6555 45.9454 12.1665C45.4658 12.6542 45.0889 13.258 44.8148 13.9779C44.5408 14.6747 44.4038 15.4643 44.4038 16.3468Z" fill="#FF4A37"/>
<path d="M60.4863 21.7454H62.5487C63.3507 20.7003 63.8893 19.5042 64.1643 18.1573C64.4393 16.8103 64.5767 15.2891 64.5767 13.5938V7.32324H78.9447V21.7454H81.4539V29.5835H77.8104V25.438H64.1299V29.5835H60.4863V21.7454ZM75.0262 21.7454V11.0159H68.289V15.6491C68.289 16.7638 68.1401 17.8786 67.8421 18.9933C67.5443 20.0849 67.1318 21.0022 66.6048 21.7454H75.0262Z" fill="#3981F1"/>
<path d="M82.248 16.3468C82.248 14.9766 82.4772 13.7225 82.9355 12.5846C83.3937 11.4234 84.0469 10.4247 84.8947 9.58863C85.7426 8.75256 86.7509 8.10228 87.9195 7.6378C89.0883 7.1501 90.383 6.90625 91.8037 6.90625C93.2015 6.90625 94.4848 7.1501 95.6535 7.6378C96.8451 8.10228 97.8648 8.75256 98.7127 9.58863C99.5605 10.4247 100.214 11.4234 100.672 12.5846C101.153 13.7225 101.394 14.9766 101.394 16.3468C101.394 17.7171 101.153 18.9827 100.672 20.1439C100.214 21.282 99.5605 22.2689 98.7127 23.105C97.8648 23.9411 96.8451 24.5913 95.6535 25.0559C94.4848 25.5203 93.2015 25.7526 91.8037 25.7526C90.4059 25.7526 89.1226 25.5203 87.9539 25.0559C86.7852 24.5913 85.777 23.9411 84.9291 23.105C84.0812 22.2689 83.4167 21.282 82.9355 20.1439C82.4772 18.9827 82.248 17.7171 82.248 16.3468ZM86.304 16.3468C86.304 17.1597 86.43 17.9145 86.6821 18.6112C86.9571 19.3079 87.3352 19.9117 87.8164 20.4226C88.2977 20.9336 88.8705 21.34 89.5351 21.642C90.2226 21.9205 90.9787 22.0599 91.8037 22.0599C92.6286 22.0599 93.3733 21.9322 94.038 21.6767C94.7254 21.398 95.3097 21.0149 95.791 20.5272C96.2722 20.0162 96.6503 19.4124 96.9253 18.7157C97.2002 18.0189 97.3378 17.2293 97.3378 16.3468C97.3378 15.4643 97.1889 14.6747 96.8909 13.9779C96.6159 13.258 96.2264 12.6542 95.7222 12.1665C95.2181 11.6555 94.6338 11.2724 93.9692 11.017C93.3046 10.7383 92.5829 10.5989 91.8037 10.5989C91.0246 10.5989 90.2913 10.7383 89.6038 11.017C88.9393 11.2724 88.3549 11.6555 87.8508 12.1665C87.3696 12.6542 86.9915 13.258 86.7165 13.9779C86.4415 14.6747 86.304 15.4643 86.304 16.3468Z" fill="#3981F1"/>
<path d="M103.818 7.32324H107.737V14.6737L115.471 7.32324H120.592L111.896 15.5098L120.902 25.438H115.884L109.043 17.983L107.737 19.272V25.438H103.818V7.32324Z" fill="#3981F1"/>
<path d="M122.141 7.32324H138.984V11.0159H132.521V25.438H128.603V11.0159H122.141V7.32324Z" fill="#3981F1"/>
<path d="M139.838 16.3468C139.838 14.9766 140.067 13.7225 140.526 12.5846C140.984 11.4234 141.637 10.4247 142.485 9.58863C143.333 8.75256 144.341 8.10228 145.51 7.6378C146.678 7.1501 147.973 6.90625 149.394 6.90625C150.792 6.90625 152.075 7.1501 153.244 7.6378C154.436 8.10228 155.455 8.75256 156.303 9.58863C157.15 10.4247 157.804 11.4234 158.262 12.5846C158.744 13.7225 158.984 14.9766 158.984 16.3468C158.984 17.7171 158.744 18.9827 158.262 20.1439C157.804 21.282 157.15 22.2689 156.303 23.105C155.455 23.9411 154.436 24.5913 153.244 25.0559C152.075 25.5203 150.792 25.7526 149.394 25.7526C147.996 25.7526 146.712 25.5203 145.544 25.0559C144.375 24.5913 143.367 23.9411 142.519 23.105C141.671 22.2689 141.007 21.282 140.526 20.1439C140.067 18.9827 139.838 17.7171 139.838 16.3468ZM143.895 16.3468C143.895 17.1597 144.021 17.9145 144.272 18.6112C144.547 19.3079 144.925 19.9117 145.407 20.4226C145.888 20.9336 146.461 21.34 147.125 21.642C147.813 21.9205 148.569 22.0599 149.394 22.0599C150.218 22.0599 150.964 21.9322 151.628 21.6767C152.316 21.398 152.9 21.0149 153.381 20.5272C153.862 20.0162 154.241 19.4124 154.515 18.7157C154.79 18.0189 154.928 17.2293 154.928 16.3468C154.928 15.4643 154.779 14.6747 154.481 13.9779C154.206 13.258 153.816 12.6542 153.313 12.1665C152.808 11.6555 152.224 11.2724 151.56 11.017C150.895 10.7383 150.173 10.5989 149.394 10.5989C148.615 10.5989 147.881 10.7383 147.194 11.017C146.53 11.2724 145.945 11.6555 145.441 12.1665C144.959 12.6542 144.582 13.258 144.307 13.9779C144.032 14.6747 143.895 15.4643 143.895 16.3468Z" fill="#3981F1"/>
<path d="M161.379 7.32428H165.297V9.30993C166.099 8.54354 166.958 7.95134 167.875 7.53329C168.792 7.11526 169.823 6.90625 170.969 6.90625C172.252 6.90625 173.432 7.1501 174.51 7.6378C175.609 8.10228 176.548 8.76417 177.327 9.62347C178.106 10.4595 178.714 11.4582 179.149 12.6193C179.585 13.7574 179.802 14.9998 179.802 16.3468C179.802 17.7402 179.562 19.0176 179.08 20.1788C178.623 21.3167 177.993 22.3038 177.19 23.1399C176.388 23.9527 175.425 24.5914 174.303 25.0559C173.203 25.5203 172.022 25.7526 170.763 25.7526C169.639 25.7526 168.631 25.5784 167.737 25.23C166.843 24.8816 166.03 24.3939 165.297 23.767V32.4062H161.379V7.32428ZM170.179 22.0599C170.958 22.0599 171.679 21.9322 172.344 21.6767C173.031 21.4213 173.627 21.0497 174.131 20.562C174.635 20.0511 175.025 19.4473 175.3 18.7505C175.597 18.0305 175.746 17.2177 175.746 16.312C175.746 15.476 175.62 14.7096 175.369 14.0128C175.116 13.2928 174.749 12.689 174.269 12.2013C173.81 11.6904 173.26 11.2955 172.619 11.017C171.976 10.7383 171.266 10.5989 170.487 10.5989C169.296 10.5989 168.242 10.8891 167.325 11.4698C166.432 12.0503 165.756 12.7471 165.297 13.5599V19.064C165.756 20.0395 166.409 20.7826 167.256 21.2936C168.104 21.8045 169.078 22.0599 170.179 22.0599Z" fill="#3981F1"/>
<path d="M181.746 16.3468C181.746 14.9766 181.976 13.7225 182.433 12.5846C182.892 11.4234 183.545 10.4247 184.393 9.58863C185.241 8.75256 186.249 8.10228 187.417 7.6378C188.586 7.1501 189.881 6.90625 191.302 6.90625C192.699 6.90625 193.983 7.1501 195.152 7.6378C196.343 8.10228 197.363 8.75256 198.211 9.58863C199.059 10.4247 199.711 11.4234 200.17 12.5846C200.651 13.7225 200.892 14.9766 200.892 16.3468C200.892 17.7171 200.651 18.9827 200.17 20.1439C199.711 21.282 199.059 22.2689 198.211 23.105C197.363 23.9411 196.343 24.5913 195.152 25.0559C193.983 25.5203 192.699 25.7526 191.302 25.7526C189.904 25.7526 188.621 25.5203 187.452 25.0559C186.284 24.5913 185.275 23.9411 184.427 23.105C183.579 22.2689 182.915 21.282 182.433 20.1439C181.976 18.9827 181.746 17.7171 181.746 16.3468ZM185.802 16.3468C185.802 17.1597 185.928 17.9145 186.18 18.6112C186.456 19.3079 186.833 19.9117 187.315 20.4226C187.796 20.9336 188.368 21.34 189.034 21.642C189.721 21.9205 190.477 22.0599 191.302 22.0599C192.127 22.0599 192.871 21.9322 193.536 21.6767C194.224 21.398 194.808 21.0149 195.289 20.5272C195.77 20.0162 196.148 19.4124 196.423 18.7157C196.699 18.0189 196.836 17.2293 196.836 16.3468C196.836 15.4643 196.687 14.6747 196.389 13.9779C196.114 13.258 195.725 12.6542 195.22 12.1665C194.716 11.6555 194.132 11.2724 193.467 11.017C192.802 10.7383 192.081 10.5989 191.302 10.5989C190.523 10.5989 189.79 10.7383 189.102 11.017C188.437 11.2724 187.853 11.6555 187.349 12.1665C186.868 12.6542 186.49 13.258 186.215 13.9779C185.939 14.6747 185.802 15.4643 185.802 16.3468Z" fill="#3981F1"/>
<path d="M203.326 7.32324H210.957C213.454 7.32324 215.334 7.68322 216.594 8.40317C217.854 9.12311 218.485 10.3656 218.485 12.1306C218.485 12.9667 218.302 13.675 217.935 14.2556C217.568 14.8362 217.087 15.3588 216.491 15.8232C217.339 16.1484 217.969 16.6941 218.382 17.4605C218.794 18.2037 219 19.063 219 20.0385C219 21.8499 218.37 23.2085 217.11 24.1142C215.85 24.9967 214.074 25.438 211.782 25.438H203.326V7.32324ZM207.245 17.9482V21.8499H211.404C212.572 21.8499 213.454 21.6989 214.051 21.397C214.646 21.0951 214.945 20.6074 214.945 19.9339C214.945 19.214 214.658 18.703 214.085 18.4011C213.535 18.0992 212.675 17.9482 211.507 17.9482H207.245ZM207.245 10.9114V14.4994H211.85C212.652 14.4994 213.283 14.3486 213.741 14.0466C214.2 13.7447 214.428 13.2802 214.428 12.6531C214.428 11.91 214.12 11.4339 213.5 11.2249C212.905 11.0159 212.023 10.9114 210.854 10.9114H207.245Z" fill="#3981F1"/>
</g>
<defs>
<clipPath id="clip0_4163_921">
<rect width="219" height="34" fill="white"/>
</clipPath>
</defs>
</svg>
