<svg width="50" height="13" viewBox="0 0 50 13" fill="none" xmlns="http://www.w3.org/2000/svg">
<path d="M6.27238 0.199503C6.35483 -0.0665004 6.7325 -0.0665011 6.81495 0.199502L8.15758 4.5311C8.19434 4.64971 8.30434 4.7306 8.42887 4.7306H12.8028C13.0744 4.7306 13.191 5.07426 12.9752 5.23863L9.41248 7.95203C9.31792 8.02405 9.27843 8.14721 9.31356 8.26056L10.6686 12.6321C10.7502 12.8954 10.4446 13.1079 10.2249 12.9406L6.71604 10.2682C6.61427 10.1907 6.47306 10.1907 6.37129 10.2682L2.86243 12.9406C2.64275 13.1079 2.33716 12.8954 2.41878 12.6321L3.77377 8.26056C3.8089 8.14721 3.76942 8.02405 3.67486 7.95203L0.112126 5.23863C-0.103703 5.07426 0.0128958 4.7306 0.284497 4.7306H4.65847C4.78299 4.7306 4.89299 4.64971 4.92975 4.5311L6.27238 0.199503Z" fill="#F04A25"/>
<path d="M24.7287 0.199503C24.8112 -0.0665004 25.1888 -0.0665011 25.2713 0.199502L26.6139 4.5311C26.6507 4.64971 26.7607 4.7306 26.8852 4.7306H31.2592C31.5308 4.7306 31.6474 5.07426 31.4315 5.23863L27.8688 7.95203C27.7743 8.02405 27.7348 8.14721 27.7699 8.26056L29.1249 12.6321C29.2065 12.8954 28.9009 13.1079 28.6812 12.9406L25.1724 10.2682C25.0706 10.1907 24.9294 10.1907 24.8276 10.2682L21.3188 12.9406C21.0991 13.1079 20.7935 12.8954 20.8751 12.6321L22.2301 8.26056C22.2652 8.14721 22.2257 8.02405 22.1312 7.95203L18.5685 5.23863C18.3526 5.07426 18.4692 4.7306 18.7408 4.7306H23.1148C23.2393 4.7306 23.3493 4.64971 23.3861 4.5311L24.7287 0.199503Z" fill="#F04A25"/>
<path d="M43.1851 0.199503C43.2675 -0.0665004 43.6452 -0.0665011 43.7276 0.199502L45.0702 4.5311C45.107 4.64971 45.217 4.7306 45.3415 4.7306H49.7155C49.9871 4.7306 50.1037 5.07426 49.8879 5.23863L46.3251 7.95203C46.2306 8.02405 46.1911 8.14721 46.2262 8.26056L47.5812 12.6321C47.6628 12.8954 47.3572 13.1079 47.1376 12.9406L43.6287 10.2682C43.5269 10.1907 43.3857 10.1907 43.284 10.2682L39.7751 12.9406C39.5554 13.1079 39.2498 12.8954 39.3314 12.6321L40.6864 8.26056C40.7216 8.14721 40.6821 8.02405 40.5875 7.95203L37.0248 5.23863C36.809 5.07426 36.9256 4.7306 37.1972 4.7306H41.5711C41.6957 4.7306 41.8057 4.64971 41.8424 4.5311L43.1851 0.199503Z" fill="#F04A25"/>
</svg>
