<svg width="18" height="17" viewBox="0 0 18 17" fill="none" xmlns="http://www.w3.org/2000/svg">
<g clip-path="url(#clip0_3817_29)">
<mask id="mask0_3817_29" style="mask-type:alpha" maskUnits="userSpaceOnUse" x="0" y="0" width="18" height="17">
<path fill-rule="evenodd" clip-rule="evenodd" d="M2.37184 1.89264L0 0.606092C0 0.606092 6.53067 0.609698 9.639 0.6133C10.6679 0.6133 11.6534 1.02413 12.3791 1.74849C12.5235 1.57911 12.6029 1.48902 12.8628 1.25477C13.3935 0.779076 14.1047 0.249318 15.3646 0.224092C15.7184 0.216885 16.195 0.292564 16.4513 0.588072C16.9856 0.584471 17.5487 0.638527 18 0.692582L16.6679 1.79174C16.3827 3.52516 15.5379 4.16663 15.1552 4.5054C15.9097 5.24776 16.3285 6.26405 16.3249 7.31993C16.3213 10.4156 16.3141 16.7763 16.3141 16.7763C16.3141 16.7763 14.2347 12.9418 13.3033 11.3057C12.8556 10.5201 12.509 9.34167 12.1372 7.92539C12.0145 8.06591 4.8231 16.142 4.8231 16.142L8.16966 8.72542L0.736461 12.0769C0.736461 12.0769 8.6787 5.03512 8.97111 4.77207C8.12637 4.50898 6.68592 4.2351 5.59206 3.62967C4.43321 2.9954 2.37184 1.89264 2.37184 1.89264Z" fill="white"/>
</mask>
<g mask="url(#mask0_3817_29)">
<path fill-rule="evenodd" clip-rule="evenodd" d="M2.37184 1.89264L0 0.606092C0 0.606092 6.53067 0.609698 9.639 0.6133C10.6679 0.6133 11.6534 1.02413 12.3791 1.74849C12.5235 1.57911 12.6029 1.48902 12.8628 1.25477C13.3935 0.779076 14.1047 0.249318 15.3646 0.224092C15.7184 0.216885 16.195 0.292564 16.4513 0.588072C16.9856 0.584471 17.5487 0.638527 18 0.692582L16.6679 1.79174C16.3827 3.52516 15.5379 4.16663 15.1552 4.5054C15.9097 5.24776 16.3285 6.26405 16.3249 7.31993C16.3213 10.4156 16.3141 16.7763 16.3141 16.7763C16.3141 16.7763 14.2347 12.9418 13.3033 11.3057C12.8556 10.5201 12.509 9.34167 12.1372 7.92539C12.0145 8.06591 4.8231 16.142 4.8231 16.142L8.16966 8.72542L0.736461 12.0769C0.736461 12.0769 8.6787 5.03512 8.97111 4.77207C8.12637 4.50898 6.68592 4.2351 5.59206 3.62967C4.43321 2.9954 2.37184 1.89264 2.37184 1.89264Z" fill="#B1DCCD"/>
<path fill-rule="evenodd" clip-rule="evenodd" d="M8.164 8.72168L0.553905 13.0534L0.330078 11.9579L2.86438 9.46046C3.38423 9.56855 3.92575 9.62621 4.47809 9.62621C5.81023 9.62264 7.06654 9.30187 8.164 8.72168Z" fill="#B1DCCD"/>
<path fill-rule="evenodd" clip-rule="evenodd" d="M8.16232 8.72312C8.58833 8.49966 8.99266 8.23661 9.36809 7.9375C9.46921 8.43842 9.51974 8.95737 9.51974 9.48714C9.51974 13.8657 5.95655 17.4227 1.57027 17.4227C1.32839 17.4227 1.09013 17.4118 0.855469 17.3902L8.16232 8.72312Z" fill="#B1DCCD"/>
<path fill-rule="evenodd" clip-rule="evenodd" d="M0.136719 1.68277C0.602423 1.59988 1.07895 1.55664 1.56993 1.55664C2.82625 1.55664 4.01758 1.84855 5.07175 2.36749C4.60605 2.45398 4.12589 2.49723 3.63491 2.49723C2.3786 2.49723 1.19087 2.20532 0.136719 1.68277Z" fill="#B1DCCD"/>
<path fill-rule="evenodd" clip-rule="evenodd" d="M5.07227 2.37021C7.82676 1.86568 10.0831 -0.0695474 11.0434 -2.63184C11.8845 -1.37772 12.3755 0.12866 12.3755 1.74676C12.3755 4.25499 11.1986 6.49654 9.36828 7.94168C8.88093 5.49108 7.25999 3.44414 5.07227 2.37021Z" fill="#B1DCCD"/>
<path fill-rule="evenodd" clip-rule="evenodd" d="M20.3196 9.16602C23.0055 9.16602 25.1859 11.3427 25.1859 14.0239C25.1859 16.7051 23.0055 18.8818 20.3196 18.8818C17.6336 18.8818 15.4531 16.7051 15.4531 14.0239C15.4531 11.3463 17.6336 9.16602 20.3196 9.16602Z" fill="#B1DCCD"/>
<path fill-rule="evenodd" clip-rule="evenodd" d="M13.516 6.68457C13.8879 8.52612 14.8987 10.137 16.3139 11.2722C15.7723 12.0542 15.4547 13.0056 15.4547 14.0291C15.4547 16.7103 17.6351 18.887 20.3211 18.887C20.4511 18.887 20.5774 18.8834 20.7037 18.8726C19.7471 19.3519 18.6677 19.6222 17.5269 19.6222C13.6063 19.6222 10.4258 16.4472 10.4258 12.5335C10.4294 10.1081 11.6532 7.96391 13.516 6.68457Z" fill="#B1DCCD"/>
<path fill-rule="evenodd" clip-rule="evenodd" d="M13.4192 4.18848C13.383 4.4948 13.365 4.80474 13.365 5.12187C13.365 5.65523 13.4192 6.17775 13.5202 6.6823C12.1592 7.61568 11.1376 9.01036 10.6863 10.6428C10.6755 10.4843 10.6719 10.3293 10.6719 10.1672C10.6682 7.77786 11.7369 5.6372 13.4192 4.18848Z" fill="#B1DCCD"/>
<path fill-rule="evenodd" clip-rule="evenodd" d="M13.5156 6.68111C14.6564 5.89906 16.0391 5.44141 17.5264 5.44141C21.3568 5.44141 24.4868 8.47577 24.6239 12.2706C23.6059 12.7498 22.4651 13.0166 21.2665 13.0166C17.4398 13.0129 14.2449 10.2921 13.5156 6.68111Z" fill="#B1DCCD"/>
<path fill-rule="evenodd" clip-rule="evenodd" d="M13.4178 4.18705C14.8041 2.99419 16.6056 2.27344 18.5767 2.27344C22.9413 2.27344 26.4828 5.80875 26.4828 10.1657C26.4828 10.4829 26.4647 10.7928 26.4287 11.0991C25.8871 11.564 25.2806 11.9604 24.6272 12.2667C24.49 8.47556 21.36 5.43757 17.5297 5.43757C16.0424 5.43757 14.6597 5.89523 13.5189 6.67728C13.4178 6.17273 13.3637 5.65016 13.3637 5.11681C13.3601 4.80329 13.3817 4.49336 13.4178 4.18705Z" fill="#B1DCCD"/>
<path fill-rule="evenodd" clip-rule="evenodd" d="M13.418 4.18937C13.88 0.272064 17.223 -2.76953 21.2699 -2.76953C25.6346 -2.76953 29.1761 0.76578 29.1761 5.12277C29.1761 7.51207 28.1111 9.65631 26.4288 11.1014C26.4649 10.7951 26.4829 10.4852 26.4829 10.1681C26.4829 5.81109 22.9414 2.27577 18.5768 2.27577C16.6057 2.27577 14.8006 2.99653 13.418 4.18937Z" fill="#B1DCCD"/>
<path fill-rule="evenodd" clip-rule="evenodd" d="M0.136162 1.68366C-2.47395 0.397115 -4.27539 -2.29131 -4.27539 -5.39779C-4.27539 -9.75476 -0.733873 -13.29 3.63075 -13.29C7.99537 -13.29 11.5369 -9.75476 11.5369 -5.39779C11.5369 -1.53091 8.74629 1.69087 5.06758 2.36478C4.00981 1.84583 2.82208 1.55393 1.56577 1.55393C1.0784 1.55753 0.601866 1.60078 0.136162 1.68366Z" fill="#B1DCCD"/>
</g>
</g>
<defs>
<clipPath id="clip0_3817_29">
<rect width="18" height="17" fill="white"/>
</clipPath>
</defs>
</svg>
