<svg width="22" height="20" viewBox="0 0 22 20" fill="none" xmlns="http://www.w3.org/2000/svg">
<path d="M10.3228 0.306927C10.4585 -0.102308 11.08 -0.102309 11.2157 0.306926L13.4253 6.97092C13.4858 7.1534 13.6669 7.27785 13.8718 7.27785H21.0702C21.5172 7.27785 21.7091 7.80655 21.3539 8.05943L15.4906 12.2339C15.3349 12.3447 15.27 12.5342 15.3278 12.7085L17.5578 19.4339C17.6921 19.839 17.1892 20.166 16.8276 19.9086L11.0529 15.7972C10.8854 15.678 10.653 15.678 10.4855 15.7972L4.71085 19.9086C4.3493 20.166 3.84637 19.839 3.9807 19.4339L6.21068 12.7085C6.2685 12.5342 6.20351 12.3447 6.04789 12.2339L0.184532 8.05943C-0.170669 7.80655 0.0212233 7.27785 0.468211 7.27785H7.66667C7.8716 7.27785 8.05263 7.1534 8.11314 6.97092L10.3228 0.306927Z" fill="white"/>
</svg>
