<svg width="54" height="14" viewBox="0 0 54 14" fill="none" xmlns="http://www.w3.org/2000/svg">
<path d="M14 7C14 10.866 10.866 14 7 14C3.13401 14 0 10.866 0 7C0 3.13401 3.13401 0 7 0C10.866 0 14 3.13401 14 7Z" fill="#F04A25"/>
<path d="M12.5974 6.99741C12.5974 10.0902 10.0902 12.5974 6.99741 12.5974C3.90461 12.5974 1.39741 10.0902 1.39741 6.99741C1.39741 3.90461 3.90461 1.39741 6.99741 1.39741C10.0902 1.39741 12.5974 3.90461 12.5974 6.99741Z" fill="white"/>
<path d="M9.80518 6.9987C9.80518 8.5451 8.55158 9.79871 7.00518 9.79871C5.45878 9.79871 4.20518 8.5451 4.20518 6.9987C4.20518 5.45231 5.45878 4.1987 7.00518 4.1987C8.55158 4.1987 9.80518 5.45231 9.80518 6.9987Z" fill="#F04A25"/>
<path d="M34 7C34 10.866 30.866 14 27 14C23.134 14 20 10.866 20 7C20 3.13401 23.134 0 27 0C30.866 0 34 3.13401 34 7Z" fill="#F04A25"/>
<path d="M32.5974 6.99741C32.5974 10.0902 30.0902 12.5974 26.9974 12.5974C23.9046 12.5974 21.3974 10.0902 21.3974 6.99741C21.3974 3.90461 23.9046 1.39741 26.9974 1.39741C30.0902 1.39741 32.5974 3.90461 32.5974 6.99741Z" fill="white"/>
<path d="M29.8052 6.9987C29.8052 8.5451 28.5516 9.79871 27.0052 9.79871C25.4588 9.79871 24.2052 8.5451 24.2052 6.9987C24.2052 5.45231 25.4588 4.1987 27.0052 4.1987C28.5516 4.1987 29.8052 5.45231 29.8052 6.9987Z" fill="#F04A25"/>
<path d="M54 7C54 10.866 50.866 14 47 14C43.134 14 40 10.866 40 7C40 3.13401 43.134 0 47 0C50.866 0 54 3.13401 54 7Z" fill="#F04A25"/>
<path d="M52.5974 6.99741C52.5974 10.0902 50.0902 12.5974 46.9974 12.5974C43.9046 12.5974 41.3974 10.0902 41.3974 6.99741C41.3974 3.90461 43.9046 1.39741 46.9974 1.39741C50.0902 1.39741 52.5974 3.90461 52.5974 6.99741Z" fill="white"/>
<path d="M49.8052 6.9987C49.8052 8.5451 48.5516 9.79871 47.0052 9.79871C45.4588 9.79871 44.2052 8.5451 44.2052 6.9987C44.2052 5.45231 45.4588 4.1987 47.0052 4.1987C48.5516 4.1987 49.8052 5.45231 49.8052 6.9987Z" fill="#F04A25"/>
</svg>
