<svg width="43" height="10" viewBox="0 0 43 10" fill="none" xmlns="http://www.w3.org/2000/svg">
<path d="M5.61048 0.201751C5.66254 0.112397 5.79351 0.112397 5.84557 0.201751L11.4379 9.80035C11.4897 9.88924 11.4245 10 11.3203 10H0.135693C0.0315725 10 -0.0336384 9.88924 0.0181496 9.80035L5.61048 0.201751Z" fill="#F04A25"/>
<path d="M26.9885 5C26.9885 7.76142 24.7137 10 21.9075 10C19.1014 10 16.8266 7.76142 16.8266 5C16.8266 2.23858 19.1014 0 21.9075 0C24.7137 0 26.9885 2.23858 26.9885 5Z" fill="#F04A25"/>
<path d="M33.5155 0.533333C33.5155 0.459695 33.5762 0.4 33.651 0.4H42.8645C42.9393 0.4 43 0.459695 43 0.533333V9.6C43 9.67364 42.9393 9.73333 42.8645 9.73333H33.651C33.5762 9.73333 33.5155 9.67364 33.5155 9.6V0.533333Z" fill="#F04A25"/>
</svg>
