<svg width="20" height="17" viewBox="0 0 20 17" fill="none" xmlns="http://www.w3.org/2000/svg">
<path fill-rule="evenodd" clip-rule="evenodd" d="M17.9283 0.116302C18.1742 0.0133228 18.4434 -0.0221941 18.7078 0.0134478C18.9722 0.0490897 19.2221 0.154588 19.4316 0.318961C19.6411 0.483335 19.8025 0.700574 19.899 0.948069C19.9955 1.19556 20.0235 1.46427 19.9802 1.72621L17.7234 15.347C17.5044 16.6609 16.0556 17.4144 14.8446 16.7599C13.8316 16.2124 12.327 15.3688 10.9737 14.4886C10.297 14.048 8.22427 12.6371 8.47901 11.6332C8.69793 10.7747 12.1807 7.54899 14.1709 5.63116C14.952 4.8777 14.5958 4.44304 13.6734 5.13611C11.3827 6.85691 7.70483 9.47374 6.48884 10.2104C5.41614 10.8599 4.8569 10.9708 4.1882 10.8599C2.96823 10.6579 1.83682 10.345 0.913377 9.96384C-0.33446 9.44899 -0.27376 7.74206 0.912382 7.24503L17.9283 0.116302Z" fill="#0088CC"/>
</svg>
