<svg width="23" height="14" viewBox="0 0 23 14" fill="none" xmlns="http://www.w3.org/2000/svg">
<path d="M22.0757 13.9989H19.5574C18.605 13.9989 18.3181 13.2085 16.6108 11.4581C15.1188 9.9848 14.4887 9.80163 14.1113 9.80163C13.5893 9.80163 13.4469 9.94862 13.4469 10.6847V13.005C13.4469 13.6325 13.2483 14 11.6481 14C10.0957 13.8931 8.59031 13.4099 7.2559 12.5902C5.92148 11.7704 4.79622 10.6375 3.97283 9.28488C2.01843 6.79122 0.658174 3.86515 0 0.73888C0 0.352173 0.143463 0.00164891 0.862987 0.00164891H3.37911C4.0258 0.00164891 4.25865 0.296768 4.51247 0.978594C5.73412 4.66249 7.81875 7.86696 8.66518 7.86696C8.98963 7.86696 9.13089 7.71996 9.13089 6.89114V3.09644C9.02384 1.3653 8.12664 1.21944 8.12664 0.593017C8.13799 0.427752 8.21177 0.27353 8.33232 0.163108C8.45286 0.0526872 8.61067 -0.00523358 8.77223 0.00164891H12.7274C13.2681 0.00164891 13.4469 0.277545 13.4469 0.940149V6.06232C13.4469 6.61525 13.6787 6.79842 13.842 6.79842C14.1664 6.79842 14.4159 6.61525 15.0107 6.00692C16.2852 4.41334 17.3268 2.63839 18.1029 0.73775C18.1819 0.509303 18.3319 0.313719 18.5298 0.180969C18.7278 0.0482189 18.9627 -0.0143748 19.1987 0.00277956H21.7159C22.4708 0.00277956 22.6308 0.389487 22.4708 0.94128C21.555 3.0425 20.4221 5.03717 19.0916 6.89114C18.8202 7.31517 18.712 7.53566 19.0916 8.03317C19.3411 8.41988 20.2239 9.1752 20.8165 9.89321C21.6795 10.7752 22.3957 11.7951 22.9376 12.9122C23.1539 13.6314 22.7941 13.9989 22.0757 13.9989Z" fill="#4D7198"/>
</svg>
