<svg width="115" height="44" viewBox="0 0 115 44" fill="none" xmlns="http://www.w3.org/2000/svg">
<path d="M11.4135 23.838L4.8143 38.6486H0L7.24835 22.8107C3.84056 21.081 1.56872 17.9459 1.56872 12.1621C1.56872 4.05406 6.70746 0 12.8199 0H19.0404V38.6486H14.8754V23.838H11.4135ZM14.8754 3.51352H12.6575C9.30388 3.51352 6.05831 5.72969 6.05831 12.1621C6.05831 18.3782 9.03344 20.3782 12.6575 20.3782H14.8754V3.51352Z" fill="#FF0000"/>
<path d="M39.1087 11.4053V38.6486H34.9436V26.4324H28.6689V38.6486H24.4498V11.4053H28.6689V22.9728H34.9436V11.4053H39.1087ZM60.7997 44H57.0132V38.6486H45.3292V44H41.5427V35.1891H43.2197C45.7079 29.4054 45.9784 20.9728 45.9784 13.7296V11.4053H58.6361V35.1891H60.7997V44ZM54.4709 14.8108H49.7649V15.2972C49.7649 21.0269 49.4944 29.4054 47.2225 35.1891H54.4709V14.8108ZM72.4296 39.0268C66.804 39.0268 63.3421 34.5405 63.3421 26.1623C63.3421 17.4054 65.7764 11.027 71.5642 11.027C76.1079 11.027 79.083 14.4324 79.083 23.6757V26H67.7235C67.7235 32.1621 69.4544 35.4055 72.8081 35.4055C75.1882 35.4055 77.0815 34.3245 78.1633 33.5676L79.1372 36.8107C77.2155 38.2844 74.8516 39.0655 72.4296 39.0268ZM67.7776 22.5404H74.7555C74.7555 17.8918 73.9981 14.4865 71.5642 14.4865C68.9676 14.4865 68.0482 17.6756 67.7776 22.5404ZM87.6295 25.0812V38.6486H83.4103V11.4053H87.6295V23.9999L94.1745 11.4053H98.4479L91.6865 24.2162L99.4215 38.6486H94.8236L87.6295 25.0812ZM99.9623 25.0272C99.9623 16.4864 103.262 11.027 109.645 11.027C112.079 11.027 113.486 11.6757 114.676 12.4324L114.081 16.4323C112.945 15.4593 111.322 14.5405 109.591 14.5405C106.562 14.5405 104.398 17.9459 104.398 24.8108C104.398 31.6216 106.021 35.5133 109.429 35.5133C111.115 35.536 112.751 34.9398 114.026 33.8377L115 36.973C113.435 38.3502 111.405 39.084 109.32 39.0268C103.478 39.0268 99.9623 34.3245 99.9623 25.0272Z" fill="black"/>
</svg>
