<svg width="25" height="17" viewBox="0 0 25 17" fill="none" xmlns="http://www.w3.org/2000/svg">
<path d="M12.4869 17C12.4869 17 20.3185 17 22.2611 16.49C23.3549 16.201 24.1775 15.368 24.4662 14.3395C25 12.4525 25 8.483 25 8.483C25 8.483 25 4.539 24.4662 2.669C24.1775 1.615 23.3549 0.798997 22.2611 0.518499C20.3185 -2.02656e-06 12.4869 0 12.4869 0C12.4869 0 4.67273 -2.02656e-06 2.73889 0.518499C1.66259 0.798997 0.822542 1.615 0.516276 2.669C8.50134e-08 4.539 0 8.483 0 8.483C0 8.483 8.50134e-08 12.4525 0.516276 14.3395C0.822542 15.368 1.66259 16.201 2.73889 16.49C4.67273 17 12.4869 17 12.4869 17Z" fill="#FF0033"/>
<path d="M16.3793 8.5L9.91379 4.8875V12.1125L16.3793 8.5Z" fill="white"/>
</svg>
