<svg width="116" height="28" viewBox="0 0 116 28" fill="none" xmlns="http://www.w3.org/2000/svg">
<path d="M1.01861 0.926976H25.1742C25.7368 0.926976 26.1928 1.38199 26.1928 1.94327V6.68267C26.1928 7.31396 25.9183 7.91169 25.4403 8.32533L11.9323 19.6H25.1742C25.7368 19.6 26.1928 20.0467 26.1928 20.608V26.049C26.1928 26.6102 25.7368 27.0653 25.1742 27.0653H1.01861C0.456047 27.0653 0 26.6102 0 26.049V21.3173C0 20.686 0.274566 20.0883 0.752555 19.6747L14.2605 8.4H1.01861C0.456047 8.4 0 7.93462 0 7.37333V1.94327C0 1.38199 0.456047 0.926976 1.01861 0.926976ZM43.0311 0C45.8241 0 48.3142 0.626659 50.393 1.77184C52.4718 2.91701 54.1393 4.58071 55.2871 6.65479C56.4349 8.72886 57.063 11.2133 57.063 14C57.063 16.7867 56.4349 19.2711 55.2871 21.3452C54.1393 23.4193 52.4718 25.083 50.393 26.2282C48.3142 27.3733 45.8241 28 43.0311 28C40.238 28 37.7479 27.3733 35.6691 26.2282C33.5903 25.083 31.9229 23.4193 30.7751 21.3452C29.6273 19.2711 28.9992 16.7867 28.9992 14C28.9992 11.2133 29.6273 8.72886 30.7751 6.65479C31.9229 4.58071 33.5903 2.91701 35.6691 1.77184C37.7479 0.626659 40.238 0 43.0311 0ZM43.0311 7.46667C41.695 7.46667 40.5221 7.74825 39.552 8.27181C38.5819 8.79537 37.8146 9.56091 37.2898 10.5288C36.7651 11.4967 36.4829 12.667 36.4829 14C36.4829 15.333 36.7651 16.5033 37.2898 17.4712C37.8146 18.4391 38.5819 19.2046 39.552 19.7282C40.5221 20.2517 41.695 20.5333 43.0311 20.5333C44.3671 20.5333 45.5401 20.2517 46.5102 19.7282C47.4803 19.2046 48.2476 18.4391 48.7723 17.4712C49.2971 16.5033 49.5793 15.333 49.5793 14C49.5793 12.667 49.2971 11.4967 48.7723 10.5288C48.2476 9.56091 47.4803 8.79537 46.5102 8.27181C45.5401 7.74825 44.3671 7.46667 43.0311 7.46667ZM72.9657 0C75.7588 0 78.2489 0.626659 80.3277 1.77184C82.4065 2.91701 84.074 4.58071 85.2217 6.65479C86.3695 8.72886 86.9976 11.2133 86.9976 14C86.9976 16.7867 86.3695 19.2711 85.2217 21.3452C84.074 23.4193 82.4065 25.083 80.3277 26.2282C78.2489 27.3733 75.7588 28 72.9657 28C70.1727 28 67.6826 27.3733 65.6038 26.2282C63.525 25.083 61.8575 23.4193 60.7097 21.3452C59.562 19.2711 58.9339 16.7867 58.9339 14C58.9339 11.2133 59.562 8.72886 60.7097 6.65479C61.8575 4.58071 63.525 2.91701 65.6038 1.77184C67.6826 0.626659 70.1727 0 72.9657 0ZM72.9657 7.46667C71.6297 7.46667 70.4567 7.74825 69.4866 8.27181C68.5165 8.79537 67.7493 9.56091 67.2245 10.5288C66.6998 11.4967 66.4175 12.667 66.4175 14C66.4175 15.333 66.6998 16.5033 67.2245 17.4712C67.7493 18.4391 68.5165 19.2046 69.4866 19.7282C70.4567 20.2517 71.6297 20.5333 72.9657 20.5333C74.3018 20.5333 75.4747 20.2517 76.4448 19.7282C77.4149 19.2046 78.1822 18.4391 78.707 17.4712C79.2317 16.5033 79.5139 15.333 79.5139 14C79.5139 12.667 79.2317 11.4967 78.707 10.5288C78.1822 9.56091 77.4149 8.79537 76.4448 8.27181C75.4747 7.74825 74.3018 7.46667 72.9657 7.46667ZM116 1.94651V26.0485C116 26.6099 115.544 27.0649 114.981 27.0649H110.234C109.602 27.0649 109.003 26.791 108.588 26.3142L97.2877 12.8385V26.0485C97.2877 26.6099 96.8212 27.0649 96.2587 27.0649H90.8195C90.2569 27.0649 89.8008 26.6099 89.8008 26.0485V1.94651C89.8008 1.38519 90.2569 0.930155 90.8195 0.930155H95.5664C96.1992 0.930155 96.7982 1.20417 97.2128 1.68118L108.513 15.1615V1.94651C108.513 1.38519 108.961 0.930155 109.523 0.930155H114.981C115.544 0.930155 116 1.38519 116 1.94651Z" fill="url(#paint0_linear_4168_1100)"/>
<defs>
<linearGradient id="paint0_linear_4168_1100" x1="5750.96" y1="4613.53" x2="5750.96" y2="-1813.53" gradientUnits="userSpaceOnUse">
<stop stop-color="#3D3F55"/>
<stop offset="1" stop-color="#6339F5"/>
</linearGradient>
</defs>
</svg>
