<svg width="1800" height="744" viewBox="0 0 1800 744" fill="none" xmlns="http://www.w3.org/2000/svg">
<path d="M1626.01 204.823C1574.65 204.823 1533.01 246.474 1533.01 297.854C1533.01 349.233 1574.65 390.884 1626.01 390.884C1677.37 390.884 1719.01 349.233 1719.01 297.854V204.823H1626.01Z" fill="white" fill-opacity="0.06"/>
<path d="M1328.26 316.616C1328.26 367.995 1369.9 409.646 1421.26 409.646H1514.26V316.616C1514.26 265.237 1472.62 223.586 1421.26 223.586C1369.9 223.586 1328.26 265.237 1328.26 316.616Z" fill="white" fill-opacity="0.06"/>
<path d="M1290.75 93.0303C1290.75 41.6511 1249.11 0 1197.75 0H1104.75V93.0303C1104.75 144.41 1146.38 186.061 1197.75 186.061C1249.11 186.061 1290.75 144.41 1290.75 93.0303Z" fill="white" fill-opacity="0.06"/>
<path d="M1216.5 204.823C1165.14 204.823 1123.5 246.474 1123.5 297.854C1123.5 349.233 1165.14 390.884 1216.5 390.884C1267.86 390.884 1309.5 349.233 1309.5 297.854V204.823H1216.5Z" fill="white" fill-opacity="0.06"/>
<path d="M918.754 316.616C918.754 367.995 960.39 409.646 1011.75 409.646H1104.75V316.616C1104.75 265.237 1063.11 223.586 1011.75 223.586C960.39 223.586 918.754 265.237 918.754 316.616Z" fill="white" fill-opacity="0.06"/>
<path d="M881.242 93.0303C881.242 41.6511 839.605 0 788.244 0H695.247V93.0303C695.247 144.41 736.883 186.061 788.244 186.061C839.605 186.061 881.242 144.41 881.242 93.0303Z" fill="white" fill-opacity="0.06"/>
<path d="M807 204.823C755.639 204.823 714.003 246.474 714.003 297.854C714.003 349.233 755.639 390.884 807 390.884C858.361 390.884 899.998 349.233 899.998 297.854V204.823H807Z" fill="white" fill-opacity="0.06"/>
<path d="M583.493 204.823C634.855 204.823 676.491 163.172 676.491 111.793C676.491 60.4135 634.855 18.7624 583.493 18.7624C532.132 18.7624 490.496 60.4135 490.496 111.793V204.823H583.493Z" fill="white" fill-opacity="0.06"/>
<path d="M509.252 316.616C509.252 367.995 550.888 409.646 602.249 409.646H695.247V316.616C695.247 265.237 653.61 223.586 602.249 223.586C550.888 223.586 509.252 265.237 509.252 316.616Z" fill="white" fill-opacity="0.06"/>
<path d="M397.498 204.823C346.137 204.823 304.501 246.474 304.501 297.854C304.501 349.233 346.137 390.884 397.498 390.884C448.86 390.884 490.496 349.233 490.496 297.854V204.823H397.498Z" fill="white" fill-opacity="0.06"/>
<path d="M99.7508 316.616C99.7508 367.995 141.387 409.646 192.748 409.646H285.745V316.616C285.745 265.237 244.11 223.586 192.748 223.586C141.387 223.586 99.7508 265.237 99.7508 316.616Z" fill="white" fill-opacity="0.06"/>
<path d="M99.7508 726.262C99.7508 777.642 141.387 819.293 192.748 819.293H285.745V726.262C285.745 674.883 244.11 633.232 192.748 633.232C141.387 633.232 99.7508 674.883 99.7508 726.262Z" fill="white" fill-opacity="0.06"/>
<path d="M-12.0024 614.47C-63.3635 614.47 -105 656.121 -105 707.5C-105 758.879 -63.3635 800.53 -12.0024 800.53C39.3587 800.53 80.995 758.879 80.995 707.5V614.47H-12.0024Z" fill="white" fill-opacity="0.06"/>
<path d="M173.993 614.47C225.354 614.47 266.989 572.818 266.989 521.439C266.989 470.06 225.354 428.409 173.993 428.409C122.632 428.409 80.995 470.06 80.995 521.439V614.47H173.993Z" fill="white" fill-opacity="0.06"/>
<path d="M471.74 502.677C471.74 451.298 430.104 409.646 378.743 409.646H285.745V502.677C285.745 554.056 327.382 595.707 378.743 595.707C430.104 595.707 471.74 554.056 471.74 502.677Z" fill="white" fill-opacity="0.06"/>
<path d="M397.498 614.47C346.137 614.47 304.501 656.121 304.501 707.5C304.501 758.879 346.137 800.53 397.498 800.53C448.86 800.53 490.496 758.879 490.496 707.5V614.47H397.498Z" fill="white" fill-opacity="0.06"/>
<path d="M509.252 726.262C509.252 777.642 550.888 819.293 602.249 819.293H695.247V726.262C695.247 674.883 653.61 633.232 602.249 633.232C550.888 633.232 509.252 674.883 509.252 726.262Z" fill="white" fill-opacity="0.06"/>
<path d="M583.493 614.47C634.855 614.47 676.491 572.818 676.491 521.439C676.491 470.06 634.855 428.409 583.493 428.409C532.132 428.409 490.496 470.06 490.496 521.439V614.47H583.493Z" fill="white" fill-opacity="0.06"/>
<path d="M881.242 502.677C881.242 451.298 839.605 409.646 788.244 409.646H695.247V502.677C695.247 554.056 736.883 595.707 788.244 595.707C839.605 595.707 881.242 554.056 881.242 502.677Z" fill="white" fill-opacity="0.06"/>
<path d="M807 614.47C755.639 614.47 714.003 656.121 714.003 707.5C714.003 758.879 755.639 800.53 807 800.53C858.361 800.53 899.998 758.879 899.998 707.5V614.47H807Z" fill="white" fill-opacity="0.06"/>
<path d="M918.754 726.262C918.754 777.642 960.39 819.293 1011.75 819.293H1104.75V726.262C1104.75 674.883 1063.11 633.232 1011.75 633.232C960.39 633.232 918.754 674.883 918.754 726.262Z" fill="white" fill-opacity="0.06"/>
<path d="M992.996 614.47C1044.36 614.47 1085.99 572.818 1085.99 521.439C1085.99 470.06 1044.36 428.409 992.996 428.409C941.635 428.409 899.998 470.06 899.998 521.439V614.47H992.996Z" fill="white" fill-opacity="0.06"/>
<path d="M1290.75 502.677C1290.75 451.298 1249.11 409.646 1197.75 409.646H1104.75V502.677C1104.75 554.056 1146.38 595.707 1197.75 595.707C1249.11 595.707 1290.75 554.056 1290.75 502.677Z" fill="white" fill-opacity="0.06"/>
<path d="M1216.5 614.47C1165.14 614.47 1123.5 656.121 1123.5 707.5C1123.5 758.879 1165.14 800.53 1216.5 800.53C1267.86 800.53 1309.5 758.879 1309.5 707.5V614.47H1216.5Z" fill="white" fill-opacity="0.06"/>
<path d="M1328.26 726.262C1328.26 777.642 1369.9 819.293 1421.26 819.293H1514.26V726.262C1514.26 674.883 1472.62 633.232 1421.26 633.232C1369.9 633.232 1328.26 674.883 1328.26 726.262Z" fill="white" fill-opacity="0.06"/>
<path d="M1402.5 614.47C1453.86 614.47 1495.5 572.818 1495.5 521.439C1495.5 470.06 1453.86 428.409 1402.5 428.409C1351.14 428.409 1309.5 470.06 1309.5 521.439V614.47H1402.5Z" fill="white" fill-opacity="0.06"/>
<path d="M1700.25 502.677C1700.25 451.298 1658.61 409.646 1607.25 409.646H1514.26V502.677C1514.26 554.056 1555.89 595.707 1607.25 595.707C1658.61 595.707 1700.25 554.056 1700.25 502.677Z" fill="white" fill-opacity="0.06"/>
<path d="M1626.01 614.47C1574.65 614.47 1533.01 656.121 1533.01 707.5C1533.01 758.879 1574.65 800.53 1626.01 800.53C1677.37 800.53 1719.01 758.879 1719.01 707.5V614.47H1626.01Z" fill="white" fill-opacity="0.06"/>
<path d="M1812 614.47C1863.36 614.47 1905 572.818 1905 521.439C1905 470.06 1863.36 428.409 1812 428.409C1760.64 428.409 1719.01 470.06 1719.01 521.439V614.47H1812Z" fill="white" fill-opacity="0.06"/>
<path d="M1700.25 912.323C1700.25 860.944 1658.61 819.293 1607.25 819.293H1514.26V912.323C1514.26 963.702 1555.89 1005.35 1607.25 1005.35C1658.61 1005.35 1700.25 963.702 1700.25 912.323Z" fill="white" fill-opacity="0.06"/>
<path d="M1812 1024.12C1863.36 1024.12 1905 982.465 1905 931.086C1905 879.706 1863.36 838.055 1812 838.055C1760.64 838.055 1719.01 879.706 1719.01 931.086V1024.12H1812Z" fill="white" fill-opacity="0.06"/>
<path d="M1626.01 1024.12C1574.65 1024.12 1533.01 1065.77 1533.01 1117.15C1533.01 1168.53 1574.65 1210.18 1626.01 1210.18C1677.37 1210.18 1719.01 1168.53 1719.01 1117.15V1024.12H1626.01Z" fill="white" fill-opacity="0.06"/>
<path d="M1700.25 1321.97C1700.25 1270.59 1658.61 1228.94 1607.25 1228.94H1514.26V1321.97C1514.26 1373.35 1555.89 1415 1607.25 1415C1658.61 1415 1700.25 1373.35 1700.25 1321.97Z" fill="white" fill-opacity="0.06"/>
<path d="M1328.26 1135.91C1328.26 1187.29 1369.9 1228.94 1421.26 1228.94H1514.26V1135.91C1514.26 1084.53 1472.62 1042.88 1421.26 1042.88C1369.9 1042.88 1328.26 1084.53 1328.26 1135.91Z" fill="white" fill-opacity="0.06"/>
<path d="M1216.5 1024.12C1165.14 1024.12 1123.5 1065.77 1123.5 1117.15C1123.5 1168.53 1165.14 1210.18 1216.5 1210.18C1267.86 1210.18 1309.5 1168.53 1309.5 1117.15V1024.12H1216.5Z" fill="white" fill-opacity="0.06"/>
<path d="M918.754 1135.91C918.754 1187.29 960.39 1228.94 1011.75 1228.94H1104.75V1135.91C1104.75 1084.53 1063.11 1042.88 1011.75 1042.88C960.39 1042.88 918.754 1084.53 918.754 1135.91Z" fill="white" fill-opacity="0.06"/>
<path d="M1290.75 1321.97C1290.75 1270.59 1249.11 1228.94 1197.75 1228.94H1104.75V1321.97C1104.75 1373.35 1146.38 1415 1197.75 1415C1249.11 1415 1290.75 1373.35 1290.75 1321.97Z" fill="white" fill-opacity="0.06"/>
<path d="M807 1024.12C755.639 1024.12 714.003 1065.77 714.003 1117.15C714.003 1168.53 755.639 1210.18 807 1210.18C858.361 1210.18 899.998 1168.53 899.998 1117.15V1024.12H807Z" fill="white" fill-opacity="0.06"/>
<path d="M509.252 1135.91C509.252 1187.29 550.888 1228.94 602.249 1228.94H695.247V1135.91C695.247 1084.53 653.61 1042.88 602.249 1042.88C550.888 1042.88 509.252 1084.53 509.252 1135.91Z" fill="white" fill-opacity="0.06"/>
<path d="M881.242 1321.97C881.242 1270.59 839.605 1228.94 788.244 1228.94H695.247V1321.97C695.247 1373.35 736.883 1415 788.244 1415C839.605 1415 881.242 1373.35 881.242 1321.97Z" fill="white" fill-opacity="0.06"/>
<path d="M397.498 1024.12C346.137 1024.12 304.501 1065.77 304.501 1117.15C304.501 1168.53 346.137 1210.18 397.498 1210.18C448.86 1210.18 490.496 1168.53 490.496 1117.15V1024.12H397.498Z" fill="white" fill-opacity="0.06"/>
<path d="M99.7508 1135.91C99.7508 1187.29 141.387 1228.94 192.748 1228.94H285.745V1135.91C285.745 1084.53 244.11 1042.88 192.748 1042.88C141.387 1042.88 99.7508 1084.53 99.7508 1135.91Z" fill="white" fill-opacity="0.06"/>
<path d="M471.74 1321.97C471.74 1270.59 430.104 1228.94 378.743 1228.94H285.745V1321.97C285.745 1373.35 327.382 1415 378.743 1415C430.104 1415 471.74 1373.35 471.74 1321.97Z" fill="white" fill-opacity="0.06"/>
<path d="M-12.0024 1024.12C-63.3635 1024.12 -105 1065.77 -105 1117.15C-105 1168.53 -63.3635 1210.18 -12.0024 1210.18C39.3587 1210.18 80.995 1168.53 80.995 1117.15V1024.12H-12.0024Z" fill="white" fill-opacity="0.06"/>
<path d="M173.993 1024.12C225.354 1024.12 266.989 982.465 266.989 931.086C266.989 879.706 225.354 838.055 173.993 838.055C122.632 838.055 80.995 879.706 80.995 931.086V1024.12H173.993Z" fill="white" fill-opacity="0.06"/>
<path d="M471.74 912.323C471.74 860.944 430.104 819.293 378.743 819.293H285.745V912.323C285.745 963.702 327.382 1005.35 378.743 1005.35C430.104 1005.35 471.74 963.702 471.74 912.323Z" fill="white" fill-opacity="0.06"/>
<path d="M583.493 1024.12C634.855 1024.12 676.491 982.465 676.491 931.086C676.491 879.706 634.855 838.055 583.493 838.055C532.132 838.055 490.496 879.706 490.496 931.086V1024.12H583.493Z" fill="white" fill-opacity="0.06"/>
<path d="M881.242 912.323C881.242 860.944 839.605 819.293 788.244 819.293H695.247V912.323C695.247 963.702 736.883 1005.35 788.244 1005.35C839.605 1005.35 881.242 963.702 881.242 912.323Z" fill="white" fill-opacity="0.06"/>
<path d="M992.996 1024.12C1044.36 1024.12 1085.99 982.465 1085.99 931.086C1085.99 879.706 1044.36 838.055 992.996 838.055C941.635 838.055 899.998 879.706 899.998 931.086V1024.12H992.996Z" fill="white" fill-opacity="0.06"/>
<path d="M1290.75 912.323C1290.75 860.944 1249.11 819.293 1197.75 819.293H1104.75V912.323C1104.75 963.702 1146.38 1005.35 1197.75 1005.35C1249.11 1005.35 1290.75 963.702 1290.75 912.323Z" fill="white" fill-opacity="0.06"/>
<path d="M1402.5 1024.12C1453.86 1024.12 1495.5 982.465 1495.5 931.086C1495.5 879.706 1453.86 838.055 1402.5 838.055C1351.14 838.055 1309.5 879.706 1309.5 931.086V1024.12H1402.5Z" fill="white" fill-opacity="0.06"/>
<path d="M1402.5 204.823C1453.86 204.823 1495.5 163.172 1495.5 111.793C1495.5 60.4135 1453.86 18.7624 1402.5 18.7624C1351.14 18.7624 1309.5 60.4135 1309.5 111.793V204.823H1402.5Z" fill="white" fill-opacity="0.06"/>
</svg>
