<svg width="230" height="232" viewBox="0 0 230 232" fill="none" xmlns="http://www.w3.org/2000/svg">
<path d="M564.085 66.8751C547.348 66.8751 533.78 80.4743 533.78 97.2497C533.78 114.025 547.348 127.624 564.085 127.624C580.822 127.624 594.39 114.025 594.39 97.2497V66.8751H564.085Z" fill="white" fill-opacity="0.04"/>
<path d="M467.057 103.376C467.057 120.151 480.625 133.75 497.362 133.75H527.668V103.376C527.668 86.6002 514.099 73.0011 497.362 73.0011C480.625 73.0011 467.057 86.6002 467.057 103.376Z" fill="white" fill-opacity="0.04"/>
<path d="M454.833 30.3746C454.833 13.5991 441.264 0 424.527 0H394.221V30.3746C394.221 47.15 407.79 60.7492 424.527 60.7492C441.264 60.7492 454.833 47.15 454.833 30.3746Z" fill="white" fill-opacity="0.04"/>
<path d="M430.639 66.8751C413.901 66.8751 400.333 80.4743 400.333 97.2497C400.333 114.025 413.901 127.624 430.639 127.624C447.376 127.624 460.945 114.025 460.945 97.2497V66.8751H430.639Z" fill="white" fill-opacity="0.04"/>
<path d="M333.611 103.376C333.611 120.151 347.179 133.75 363.916 133.75H394.221V103.376C394.221 86.6002 380.653 73.0011 363.916 73.0011C347.179 73.0011 333.611 86.6002 333.611 103.376Z" fill="white" fill-opacity="0.04"/>
<path d="M321.387 30.3746C321.387 13.5991 307.819 0 291.082 0H260.777V30.3746C260.777 47.15 274.345 60.7492 291.082 60.7492C307.819 60.7492 321.387 47.15 321.387 30.3746Z" fill="white" fill-opacity="0.04"/>
<path d="M297.194 66.8751C280.457 66.8751 266.889 80.4743 266.889 97.2497C266.889 114.025 280.457 127.624 297.194 127.624C313.931 127.624 327.499 114.025 327.499 97.2497V66.8751H297.194Z" fill="white" fill-opacity="0.04"/>
<path d="M224.36 66.8751C241.097 66.8751 254.665 53.276 254.665 36.5005C254.665 19.7251 241.097 6.12596 224.36 6.12596C207.623 6.12596 194.055 19.7251 194.055 36.5005V66.8751H224.36Z" fill="white" fill-opacity="0.04"/>
<path d="M200.167 103.376C200.167 120.151 213.735 133.75 230.472 133.75H260.777V103.376C260.777 86.6002 247.209 73.0011 230.472 73.0011C213.735 73.0011 200.167 86.6002 200.167 103.376Z" fill="white" fill-opacity="0.04"/>
<path d="M163.749 66.8751C147.012 66.8751 133.444 80.4743 133.444 97.2497C133.444 114.025 147.012 127.624 163.749 127.624C180.487 127.624 194.055 114.025 194.055 97.2497V66.8751H163.749Z" fill="white" fill-opacity="0.04"/>
<path d="M66.7223 103.376C66.7223 120.151 80.2904 133.75 97.0275 133.75H127.332V103.376C127.332 86.6002 113.765 73.0011 97.0275 73.0011C80.2904 73.0011 66.7223 86.6002 66.7223 103.376Z" fill="white" fill-opacity="0.04"/>
<path d="M66.7223 237.126C66.7223 253.901 80.2904 267.501 97.0275 267.501H127.332V237.126C127.332 220.351 113.765 206.751 97.0275 206.751C80.2904 206.751 66.7223 220.351 66.7223 237.126Z" fill="white" fill-opacity="0.04"/>
<path d="M30.3052 200.625C13.5681 200.625 0 214.225 0 231C0 247.775 13.5681 261.375 30.3052 261.375C47.0423 261.375 60.6103 247.775 60.6103 231V200.625H30.3052Z" fill="white" fill-opacity="0.04"/>
<path d="M90.9155 200.625C107.653 200.625 121.22 187.026 121.22 170.251C121.22 153.475 107.653 139.876 90.9155 139.876C74.1784 139.876 60.6103 153.475 60.6103 170.251V200.625H90.9155Z" fill="white" fill-opacity="0.04"/>
<path d="M187.943 164.125C187.943 147.349 174.375 133.75 157.638 133.75H127.332V164.125C127.332 180.9 140.9 194.499 157.638 194.499C174.375 194.499 187.943 180.9 187.943 164.125Z" fill="white" fill-opacity="0.04"/>
<path d="M163.749 200.625C147.012 200.625 133.444 214.225 133.444 231C133.444 247.775 147.012 261.375 163.749 261.375C180.487 261.375 194.055 247.775 194.055 231V200.625H163.749Z" fill="white" fill-opacity="0.04"/>
<path d="M200.167 237.126C200.167 253.901 213.735 267.501 230.472 267.501H260.777V237.126C260.777 220.351 247.209 206.751 230.472 206.751C213.735 206.751 200.167 220.351 200.167 237.126Z" fill="white" fill-opacity="0.04"/>
<path d="M224.36 200.625C241.097 200.625 254.665 187.026 254.665 170.251C254.665 153.475 241.097 139.876 224.36 139.876C207.623 139.876 194.055 153.475 194.055 170.251V200.625H224.36Z" fill="white" fill-opacity="0.04"/>
<path d="M321.387 164.125C321.387 147.349 307.819 133.75 291.082 133.75H260.777V164.125C260.777 180.9 274.345 194.499 291.082 194.499C307.819 194.499 321.387 180.9 321.387 164.125Z" fill="white" fill-opacity="0.04"/>
<path d="M297.194 200.625C280.457 200.625 266.889 214.225 266.889 231C266.889 247.775 280.457 261.375 297.194 261.375C313.931 261.375 327.499 247.775 327.499 231V200.625H297.194Z" fill="white" fill-opacity="0.04"/>
<path d="M333.611 237.126C333.611 253.901 347.179 267.501 363.916 267.501H394.221V237.126C394.221 220.351 380.653 206.751 363.916 206.751C347.179 206.751 333.611 220.351 333.611 237.126Z" fill="white" fill-opacity="0.04"/>
<path d="M357.805 200.625C374.542 200.625 388.11 187.026 388.11 170.251C388.11 153.475 374.542 139.876 357.805 139.876C341.067 139.876 327.499 153.475 327.499 170.251V200.625H357.805Z" fill="white" fill-opacity="0.04"/>
<path d="M454.833 164.125C454.833 147.349 441.264 133.75 424.527 133.75H394.221V164.125C394.221 180.9 407.79 194.499 424.527 194.499C441.264 194.499 454.833 180.9 454.833 164.125Z" fill="white" fill-opacity="0.04"/>
<path d="M430.639 200.625C413.901 200.625 400.333 214.225 400.333 231C400.333 247.775 413.901 261.375 430.639 261.375C447.376 261.375 460.945 247.775 460.945 231V200.625H430.639Z" fill="white" fill-opacity="0.04"/>
<path d="M467.057 237.126C467.057 253.901 480.625 267.501 497.362 267.501H527.668V237.126C527.668 220.351 514.099 206.751 497.362 206.751C480.625 206.751 467.057 220.351 467.057 237.126Z" fill="white" fill-opacity="0.04"/>
<path d="M491.251 200.625C507.988 200.625 521.556 187.026 521.556 170.251C521.556 153.475 507.988 139.876 491.251 139.876C474.513 139.876 460.945 153.475 460.945 170.251V200.625H491.251Z" fill="white" fill-opacity="0.04"/>
<path d="M588.278 164.125C588.278 147.349 574.71 133.75 557.973 133.75H527.668V164.125C527.668 180.9 541.236 194.499 557.973 194.499C574.71 194.499 588.278 180.9 588.278 164.125Z" fill="white" fill-opacity="0.04"/>
<path d="M564.085 200.625C547.348 200.625 533.78 214.225 533.78 231C533.78 247.775 547.348 261.375 564.085 261.375C580.822 261.375 594.39 247.775 594.39 231V200.625H564.085Z" fill="white" fill-opacity="0.04"/>
<path d="M624.695 200.625C641.432 200.625 655 187.026 655 170.251C655 153.475 641.432 139.876 624.695 139.876C607.958 139.876 594.39 153.475 594.39 170.251V200.625H624.695Z" fill="white" fill-opacity="0.04"/>
<path d="M588.278 297.875C588.278 281.1 574.71 267.501 557.973 267.501H527.668V297.875C527.668 314.651 541.236 328.25 557.973 328.25C574.71 328.25 588.278 314.651 588.278 297.875Z" fill="white" fill-opacity="0.04"/>
<path d="M624.695 334.376C641.432 334.376 655 320.777 655 304.001C655 287.226 641.432 273.626 624.695 273.626C607.958 273.626 594.39 287.226 594.39 304.001V334.376H624.695Z" fill="white" fill-opacity="0.04"/>
<path d="M564.085 334.376C547.348 334.376 533.78 347.975 533.78 364.75C533.78 381.526 547.348 395.125 564.085 395.125C580.822 395.125 594.39 381.526 594.39 364.75V334.376H564.085Z" fill="white" fill-opacity="0.04"/>
<path d="M588.278 431.625C588.278 414.85 574.71 401.251 557.973 401.251H527.668V431.625C527.668 448.401 541.236 462 557.973 462C574.71 462 588.278 448.401 588.278 431.625Z" fill="white" fill-opacity="0.04"/>
<path d="M467.057 370.876C467.057 387.652 480.625 401.251 497.362 401.251H527.668V370.876C527.668 354.101 514.099 340.502 497.362 340.502C480.625 340.502 467.057 354.101 467.057 370.876Z" fill="white" fill-opacity="0.04"/>
<path d="M430.639 334.376C413.901 334.376 400.333 347.975 400.333 364.75C400.333 381.526 413.901 395.125 430.639 395.125C447.376 395.125 460.945 381.526 460.945 364.75V334.376H430.639Z" fill="white" fill-opacity="0.04"/>
<path d="M333.611 370.876C333.611 387.652 347.179 401.251 363.916 401.251H394.221V370.876C394.221 354.101 380.653 340.502 363.916 340.502C347.179 340.502 333.611 354.101 333.611 370.876Z" fill="white" fill-opacity="0.04"/>
<path d="M454.833 431.625C454.833 414.85 441.264 401.251 424.527 401.251H394.221V431.625C394.221 448.401 407.79 462 424.527 462C441.264 462 454.833 448.401 454.833 431.625Z" fill="white" fill-opacity="0.04"/>
<path d="M297.194 334.376C280.457 334.376 266.889 347.975 266.889 364.75C266.889 381.526 280.457 395.125 297.194 395.125C313.931 395.125 327.499 381.526 327.499 364.75V334.376H297.194Z" fill="white" fill-opacity="0.04"/>
<path d="M200.167 370.876C200.167 387.652 213.735 401.251 230.472 401.251H260.777V370.876C260.777 354.101 247.209 340.502 230.472 340.502C213.735 340.502 200.167 354.101 200.167 370.876Z" fill="white" fill-opacity="0.04"/>
<path d="M321.387 431.625C321.387 414.85 307.819 401.251 291.082 401.251H260.777V431.625C260.777 448.401 274.345 462 291.082 462C307.819 462 321.387 448.401 321.387 431.625Z" fill="white" fill-opacity="0.04"/>
<path d="M163.749 334.376C147.012 334.376 133.444 347.975 133.444 364.75C133.444 381.526 147.012 395.125 163.749 395.125C180.487 395.125 194.055 381.526 194.055 364.75V334.376H163.749Z" fill="white" fill-opacity="0.04"/>
<path d="M66.7223 370.876C66.7223 387.652 80.2904 401.251 97.0275 401.251H127.332V370.876C127.332 354.101 113.765 340.502 97.0275 340.502C80.2904 340.502 66.7223 354.101 66.7223 370.876Z" fill="white" fill-opacity="0.04"/>
<path d="M187.943 431.625C187.943 414.85 174.375 401.251 157.638 401.251H127.332V431.625C127.332 448.401 140.9 462 157.638 462C174.375 462 187.943 448.401 187.943 431.625Z" fill="white" fill-opacity="0.04"/>
<path d="M30.3052 334.376C13.5681 334.376 0 347.975 0 364.75C0 381.526 13.5681 395.125 30.3052 395.125C47.0423 395.125 60.6103 381.526 60.6103 364.75V334.376H30.3052Z" fill="white" fill-opacity="0.04"/>
<path d="M90.9155 334.376C107.653 334.376 121.22 320.777 121.22 304.001C121.22 287.226 107.653 273.626 90.9155 273.626C74.1784 273.626 60.6103 287.226 60.6103 304.001V334.376H90.9155Z" fill="white" fill-opacity="0.04"/>
<path d="M187.943 297.875C187.943 281.1 174.375 267.501 157.638 267.501H127.332V297.875C127.332 314.651 140.9 328.25 157.638 328.25C174.375 328.25 187.943 314.651 187.943 297.875Z" fill="white" fill-opacity="0.04"/>
<path d="M224.36 334.376C241.097 334.376 254.665 320.777 254.665 304.001C254.665 287.226 241.097 273.626 224.36 273.626C207.623 273.626 194.055 287.226 194.055 304.001V334.376H224.36Z" fill="white" fill-opacity="0.04"/>
<path d="M321.387 297.875C321.387 281.1 307.819 267.501 291.082 267.501H260.777V297.875C260.777 314.651 274.345 328.25 291.082 328.25C307.819 328.25 321.387 314.651 321.387 297.875Z" fill="white" fill-opacity="0.04"/>
<path d="M357.805 334.376C374.542 334.376 388.11 320.777 388.11 304.001C388.11 287.226 374.542 273.626 357.805 273.626C341.067 273.626 327.499 287.226 327.499 304.001V334.376H357.805Z" fill="white" fill-opacity="0.04"/>
<path d="M454.833 297.875C454.833 281.1 441.264 267.501 424.527 267.501H394.221V297.875C394.221 314.651 407.79 328.25 424.527 328.25C441.264 328.25 454.833 314.651 454.833 297.875Z" fill="white" fill-opacity="0.04"/>
<path d="M491.251 334.376C507.988 334.376 521.556 320.777 521.556 304.001C521.556 287.226 507.988 273.626 491.251 273.626C474.513 273.626 460.945 287.226 460.945 304.001V334.376H491.251Z" fill="white" fill-opacity="0.04"/>
<path d="M491.251 66.8751C507.988 66.8751 521.556 53.276 521.556 36.5005C521.556 19.7251 507.988 6.12596 491.251 6.12596C474.513 6.12596 460.945 19.7251 460.945 36.5005V66.8751H491.251Z" fill="white" fill-opacity="0.04"/>
</svg>
