<svg width="1350" height="855" viewBox="0 0 1350 855" fill="none" xmlns="http://www.w3.org/2000/svg">
<path d="M1310.75 155.045C1271.85 155.045 1240.33 186.574 1240.33 225.466C1240.33 264.359 1271.85 295.887 1310.75 295.887C1349.64 295.887 1381.17 264.359 1381.17 225.466V155.045H1310.75Z" fill="white" fill-opacity="0.04"/>
<path d="M1085.29 239.669C1085.29 278.561 1116.81 310.09 1155.71 310.09H1226.13V239.669C1226.13 200.776 1194.6 169.248 1155.71 169.248C1116.81 169.248 1085.29 200.776 1085.29 239.669Z" fill="white" fill-opacity="0.04"/>
<path d="M1056.88 70.4212C1056.88 31.5286 1025.35 0 986.459 0H916.04V70.4212C916.04 109.314 947.568 140.842 986.459 140.842C1025.35 140.842 1056.88 109.314 1056.88 70.4212Z" fill="white" fill-opacity="0.04"/>
<path d="M1000.66 155.045C961.77 155.045 930.243 186.574 930.243 225.466C930.243 264.359 961.77 295.887 1000.66 295.887C1039.55 295.887 1071.08 264.359 1071.08 225.466V155.045H1000.66Z" fill="white" fill-opacity="0.04"/>
<path d="M775.203 239.669C775.203 278.561 806.73 310.09 845.621 310.09H916.04V239.669C916.04 200.776 884.513 169.248 845.621 169.248C806.73 169.248 775.203 200.776 775.203 239.669Z" fill="white" fill-opacity="0.04"/>
<path d="M746.798 70.4212C746.798 31.5286 715.27 0 676.379 0H605.959V70.4212C605.959 109.314 637.487 140.842 676.379 140.842C715.27 140.842 746.798 109.314 746.798 70.4212Z" fill="white" fill-opacity="0.04"/>
<path d="M690.581 155.045C651.689 155.045 620.162 186.574 620.162 225.466C620.162 264.359 651.689 295.887 690.581 295.887C729.472 295.887 761 264.359 761 225.466V155.045H690.581Z" fill="white" fill-opacity="0.04"/>
<path d="M521.338 155.045C560.229 155.045 591.757 123.516 591.757 84.6238C591.757 45.7312 560.229 14.2026 521.338 14.2026C482.447 14.2026 450.919 45.7312 450.919 84.6238V155.045H521.338Z" fill="white" fill-opacity="0.04"/>
<path d="M465.121 239.669C465.121 278.561 496.649 310.09 535.54 310.09H605.959V239.669C605.959 200.776 574.432 169.248 535.54 169.248C496.649 169.248 465.121 200.776 465.121 239.669Z" fill="white" fill-opacity="0.04"/>
<path d="M380.5 155.045C341.608 155.045 310.08 186.574 310.08 225.466C310.08 264.359 341.608 295.887 380.5 295.887C419.391 295.887 450.919 264.359 450.919 225.466V155.045H380.5Z" fill="white" fill-opacity="0.04"/>
<path d="M155.04 239.669C155.04 278.561 186.568 310.09 225.46 310.09H295.878V239.669C295.878 200.776 264.351 169.248 225.46 169.248C186.568 169.248 155.04 200.776 155.04 239.669Z" fill="white" fill-opacity="0.04"/>
<path d="M155.04 549.759C155.04 588.651 186.568 620.18 225.46 620.18H295.878V549.759C295.878 510.866 264.351 479.338 225.46 479.338C186.568 479.338 155.04 510.866 155.04 549.759Z" fill="white" fill-opacity="0.04"/>
<path d="M70.4192 465.135C31.5278 465.135 0 496.664 0 535.556C0 574.449 31.5278 605.977 70.4192 605.977C109.311 605.977 140.838 574.449 140.838 535.556V465.135H70.4192Z" fill="white" fill-opacity="0.04"/>
<path d="M211.258 465.135C250.149 465.135 281.676 433.606 281.676 394.714C281.676 355.821 250.149 324.293 211.258 324.293C172.366 324.293 140.838 355.821 140.838 394.714V465.135H211.258Z" fill="white" fill-opacity="0.04"/>
<path d="M436.717 380.511C436.717 341.619 405.189 310.09 366.297 310.09H295.878V380.511C295.878 419.404 327.406 450.932 366.297 450.932C405.189 450.932 436.717 419.404 436.717 380.511Z" fill="white" fill-opacity="0.04"/>
<path d="M380.5 465.135C341.608 465.135 310.08 496.664 310.08 535.556C310.08 574.449 341.608 605.977 380.5 605.977C419.391 605.977 450.919 574.449 450.919 535.556V465.135H380.5Z" fill="white" fill-opacity="0.04"/>
<path d="M465.121 549.759C465.121 588.651 496.649 620.18 535.54 620.18H605.959V549.759C605.959 510.866 574.432 479.338 535.54 479.338C496.649 479.338 465.121 510.866 465.121 549.759Z" fill="white" fill-opacity="0.04"/>
<path d="M521.338 465.135C560.229 465.135 591.757 433.606 591.757 394.714C591.757 355.821 560.229 324.293 521.338 324.293C482.447 324.293 450.919 355.821 450.919 394.714V465.135H521.338Z" fill="white" fill-opacity="0.04"/>
<path d="M746.798 380.511C746.798 341.619 715.27 310.09 676.379 310.09H605.959V380.511C605.959 419.404 637.487 450.932 676.379 450.932C715.27 450.932 746.798 419.404 746.798 380.511Z" fill="white" fill-opacity="0.04"/>
<path d="M690.581 465.135C651.689 465.135 620.162 496.664 620.162 535.556C620.162 574.449 651.689 605.977 690.581 605.977C729.472 605.977 761 574.449 761 535.556V465.135H690.581Z" fill="white" fill-opacity="0.04"/>
<path d="M775.203 549.759C775.203 588.651 806.73 620.18 845.621 620.18H916.04V549.759C916.04 510.866 884.513 479.338 845.621 479.338C806.73 479.338 775.203 510.866 775.203 549.759Z" fill="white" fill-opacity="0.04"/>
<path d="M831.419 465.135C870.311 465.135 901.838 433.606 901.838 394.714C901.838 355.821 870.311 324.293 831.419 324.293C792.528 324.293 761 355.821 761 394.714V465.135H831.419Z" fill="white" fill-opacity="0.04"/>
<path d="M1056.88 380.511C1056.88 341.619 1025.35 310.09 986.459 310.09H916.04V380.511C916.04 419.404 947.568 450.932 986.459 450.932C1025.35 450.932 1056.88 419.404 1056.88 380.511Z" fill="white" fill-opacity="0.04"/>
<path d="M1000.66 465.135C961.77 465.135 930.243 496.664 930.243 535.556C930.243 574.449 961.77 605.977 1000.66 605.977C1039.55 605.977 1071.08 574.449 1071.08 535.556V465.135H1000.66Z" fill="white" fill-opacity="0.04"/>
<path d="M1085.29 549.759C1085.29 588.651 1116.81 620.18 1155.71 620.18H1226.13V549.759C1226.13 510.866 1194.6 479.338 1155.71 479.338C1116.81 479.338 1085.29 510.866 1085.29 549.759Z" fill="white" fill-opacity="0.04"/>
<path d="M1141.5 465.135C1180.4 465.135 1211.92 433.606 1211.92 394.714C1211.92 355.821 1180.4 324.293 1141.5 324.293C1102.61 324.293 1071.08 355.821 1071.08 394.714V465.135H1141.5Z" fill="white" fill-opacity="0.04"/>
<path d="M1366.96 380.511C1366.96 341.619 1335.44 310.09 1296.54 310.09H1226.13V380.511C1226.13 419.404 1257.65 450.932 1296.54 450.932C1335.44 450.932 1366.96 419.404 1366.96 380.511Z" fill="white" fill-opacity="0.04"/>
<path d="M1310.75 465.135C1271.85 465.135 1240.33 496.664 1240.33 535.556C1240.33 574.449 1271.85 605.977 1310.75 605.977C1349.64 605.977 1381.17 574.449 1381.17 535.556V465.135H1310.75Z" fill="white" fill-opacity="0.04"/>
<path d="M1451.58 465.135C1490.48 465.135 1522 433.606 1522 394.714C1522 355.821 1490.48 324.293 1451.58 324.293C1412.69 324.293 1381.17 355.821 1381.17 394.714V465.135H1451.58Z" fill="white" fill-opacity="0.04"/>
<path d="M1366.96 690.601C1366.96 651.709 1335.44 620.18 1296.54 620.18H1226.13V690.601C1226.13 729.494 1257.65 761.022 1296.54 761.022C1335.44 761.022 1366.96 729.494 1366.96 690.601Z" fill="white" fill-opacity="0.04"/>
<path d="M1451.58 775.225C1490.48 775.225 1522 743.696 1522 704.804C1522 665.911 1490.48 634.383 1451.58 634.383C1412.69 634.383 1381.17 665.911 1381.17 704.804V775.225H1451.58Z" fill="white" fill-opacity="0.04"/>
<path d="M1310.75 775.225C1271.85 775.225 1240.33 806.754 1240.33 845.646C1240.33 884.539 1271.85 916.068 1310.75 916.068C1349.64 916.068 1381.17 884.539 1381.17 845.646V775.225H1310.75Z" fill="white" fill-opacity="0.04"/>
<path d="M1366.96 1000.69C1366.96 961.799 1335.44 930.27 1296.54 930.27H1226.13V1000.69C1226.13 1039.58 1257.65 1071.11 1296.54 1071.11C1335.44 1071.11 1366.96 1039.58 1366.96 1000.69Z" fill="white" fill-opacity="0.04"/>
<path d="M1085.29 859.849C1085.29 898.741 1116.81 930.27 1155.71 930.27H1226.13V859.849C1226.13 820.956 1194.6 789.428 1155.71 789.428C1116.81 789.428 1085.29 820.956 1085.29 859.849Z" fill="white" fill-opacity="0.04"/>
<path d="M1000.66 775.225C961.77 775.225 930.243 806.754 930.243 845.646C930.243 884.539 961.77 916.068 1000.66 916.068C1039.55 916.068 1071.08 884.539 1071.08 845.646V775.225H1000.66Z" fill="white" fill-opacity="0.04"/>
<path d="M775.203 859.849C775.203 898.741 806.73 930.27 845.621 930.27H916.04V859.849C916.04 820.956 884.513 789.428 845.621 789.428C806.73 789.428 775.203 820.956 775.203 859.849Z" fill="white" fill-opacity="0.04"/>
<path d="M1056.88 1000.69C1056.88 961.799 1025.35 930.27 986.459 930.27H916.04V1000.69C916.04 1039.58 947.568 1071.11 986.459 1071.11C1025.35 1071.11 1056.88 1039.58 1056.88 1000.69Z" fill="white" fill-opacity="0.04"/>
<path d="M690.581 775.225C651.689 775.225 620.162 806.754 620.162 845.646C620.162 884.539 651.689 916.068 690.581 916.068C729.472 916.068 761 884.539 761 845.646V775.225H690.581Z" fill="white" fill-opacity="0.04"/>
<path d="M465.121 859.849C465.121 898.741 496.649 930.27 535.54 930.27H605.959V859.849C605.959 820.956 574.432 789.428 535.54 789.428C496.649 789.428 465.121 820.956 465.121 859.849Z" fill="white" fill-opacity="0.04"/>
<path d="M746.798 1000.69C746.798 961.799 715.27 930.27 676.379 930.27H605.959V1000.69C605.959 1039.58 637.487 1071.11 676.379 1071.11C715.27 1071.11 746.798 1039.58 746.798 1000.69Z" fill="white" fill-opacity="0.04"/>
<path d="M380.5 775.225C341.608 775.225 310.08 806.754 310.08 845.646C310.08 884.539 341.608 916.068 380.5 916.068C419.391 916.068 450.919 884.539 450.919 845.646V775.225H380.5Z" fill="white" fill-opacity="0.04"/>
<path d="M155.04 859.849C155.04 898.741 186.568 930.27 225.46 930.27H295.878V859.849C295.878 820.956 264.351 789.428 225.46 789.428C186.568 789.428 155.04 820.956 155.04 859.849Z" fill="white" fill-opacity="0.04"/>
<path d="M436.717 1000.69C436.717 961.799 405.189 930.27 366.297 930.27H295.878V1000.69C295.878 1039.58 327.406 1071.11 366.297 1071.11C405.189 1071.11 436.717 1039.58 436.717 1000.69Z" fill="white" fill-opacity="0.04"/>
<path d="M70.4192 775.225C31.5278 775.225 0 806.754 0 845.646C0 884.539 31.5278 916.068 70.4192 916.068C109.311 916.068 140.838 884.539 140.838 845.646V775.225H70.4192Z" fill="white" fill-opacity="0.04"/>
<path d="M211.258 775.225C250.149 775.225 281.676 743.696 281.676 704.804C281.676 665.911 250.149 634.383 211.258 634.383C172.366 634.383 140.838 665.911 140.838 704.804V775.225H211.258Z" fill="white" fill-opacity="0.04"/>
<path d="M436.717 690.601C436.717 651.709 405.189 620.18 366.297 620.18H295.878V690.601C295.878 729.494 327.406 761.022 366.297 761.022C405.189 761.022 436.717 729.494 436.717 690.601Z" fill="white" fill-opacity="0.04"/>
<path d="M521.338 775.225C560.229 775.225 591.757 743.696 591.757 704.804C591.757 665.911 560.229 634.383 521.338 634.383C482.447 634.383 450.919 665.911 450.919 704.804V775.225H521.338Z" fill="white" fill-opacity="0.04"/>
<path d="M746.798 690.601C746.798 651.709 715.27 620.18 676.379 620.18H605.959V690.601C605.959 729.494 637.487 761.022 676.379 761.022C715.27 761.022 746.798 729.494 746.798 690.601Z" fill="white" fill-opacity="0.04"/>
<path d="M831.419 775.225C870.311 775.225 901.838 743.696 901.838 704.804C901.838 665.911 870.311 634.383 831.419 634.383C792.528 634.383 761 665.911 761 704.804V775.225H831.419Z" fill="white" fill-opacity="0.04"/>
<path d="M1056.88 690.601C1056.88 651.709 1025.35 620.18 986.459 620.18H916.04V690.601C916.04 729.494 947.568 761.022 986.459 761.022C1025.35 761.022 1056.88 729.494 1056.88 690.601Z" fill="white" fill-opacity="0.04"/>
<path d="M1141.5 775.225C1180.4 775.225 1211.92 743.696 1211.92 704.804C1211.92 665.911 1180.4 634.383 1141.5 634.383C1102.61 634.383 1071.08 665.911 1071.08 704.804V775.225H1141.5Z" fill="white" fill-opacity="0.04"/>
<path d="M1141.5 155.045C1180.4 155.045 1211.92 123.516 1211.92 84.6238C1211.92 45.7312 1180.4 14.2026 1141.5 14.2026C1102.61 14.2026 1071.08 45.7312 1071.08 84.6238V155.045H1141.5Z" fill="white" fill-opacity="0.04"/>
</svg>
